<mxfile host="app.diagrams.net" agent="Mozilla/5.0 (Macintosh; Intel Mac OS X 10_15_7) AppleWebKit/537.36 (KHTML, like Gecko) Chrome/133.0.0.0 Safari/537.36" version="26.1.0">
  <diagram name="Page-1" id="wcU89FCxmK8TwFyxBk0u">
    <mxGraphModel dx="2958" dy="2005" grid="0" gridSize="10" guides="1" tooltips="1" connect="1" arrows="1" fold="1" page="1" pageScale="1" pageWidth="1169" pageHeight="827" background="none" math="0" shadow="0">
      <root>
        <mxCell id="0" />
        <mxCell id="1" parent="0" />
        <mxCell id="34qyB1KcK59s6ThQKmhQ-95" style="edgeStyle=orthogonalEdgeStyle;rounded=1;orthogonalLoop=1;jettySize=auto;html=1;entryX=0.25;entryY=0;entryDx=0;entryDy=0;exitX=0.994;exitY=0.119;exitDx=0;exitDy=0;exitPerimeter=0;labelBackgroundColor=none;fontColor=default;" edge="1" parent="1" source="UUgWVv2ZVk7OZgaHs7lp-27" target="UUgWVv2ZVk7OZgaHs7lp-28">
          <mxGeometry relative="1" as="geometry">
            <Array as="points">
              <mxPoint x="-760" y="80" />
            </Array>
          </mxGeometry>
        </mxCell>
        <mxCell id="UUgWVv2ZVk7OZgaHs7lp-27" value="&lt;div style=&quot;line-height: 18px; white-space: pre;&quot;&gt;&lt;div style=&quot;&quot;&gt;&lt;font face=&quot;Courier New&quot; style=&quot;color: light-dark(rgb(0, 0, 0), rgb(230, 230, 230)); font-size: 11px;&quot;&gt;&lt;span style=&quot;box-sizing: border-box; border-width: 0px; border-style: solid; border-color: hsl(var(--border-100)); border-image: initial; --tw-border-spacing-x: 0; --tw-border-spacing-y: 0; --tw-translate-x: 0; --tw-translate-y: 0; --tw-rotate: 0; --tw-skew-x: 0; --tw-skew-y: 0; --tw-scale-x: 1; --tw-scale-y: 1; --tw-pan-x: ; --tw-pan-y: ; --tw-pinch-zoom: ; --tw-scroll-snap-strictness: proximity; --tw-gradient-from-position: ; --tw-gradient-via-position: ; --tw-gradient-to-position: ; --tw-ordinal: ; --tw-slashed-zero: ; --tw-numeric-figure: ; --tw-numeric-spacing: ; --tw-numeric-fraction: ; --tw-ring-inset: ; --tw-ring-offset-width: 0px; --tw-ring-offset-color: light-dark(#fff, #000000); --tw-ring-color: hsl(var(--accent-secondary-100)/1); --tw-ring-offset-shadow: 0 0 #0000; --tw-ring-shadow: 0 0 #0000; --tw-shadow: 0 0 #0000; --tw-shadow-colored: 0 0 #0000; --tw-blur: ; --tw-brightness: ; --tw-contrast: ; --tw-grayscale: ; --tw-hue-rotate: ; --tw-invert: ; --tw-saturate: ; --tw-sepia: ; --tw-drop-shadow: ; --tw-backdrop-blur: ; --tw-backdrop-brightness: ; --tw-backdrop-contrast: ; --tw-backdrop-grayscale: ; --tw-backdrop-hue-rotate: ; --tw-backdrop-invert: ; --tw-backdrop-opacity: ; --tw-backdrop-saturate: ; --tw-backdrop-sepia: ; --tw-contain-size: ; --tw-contain-layout: ; --tw-contain-paint: ; --tw-contain-style: ; outline-color: hsl(var(--accent-main-100)); scrollbar-color: hsl(var(--border-300)/.8) transparent; letter-spacing: -0.4px; text-align: left;&quot; class=&quot;&quot;&gt;╔═══════════════════════════════════════╗&lt;br&gt;&lt;/span&gt;&lt;span style=&quot;box-sizing: border-box; border-width: 0px; border-style: solid; border-color: hsl(var(--border-100)); border-image: initial; --tw-border-spacing-x: 0; --tw-border-spacing-y: 0; --tw-translate-x: 0; --tw-translate-y: 0; --tw-rotate: 0; --tw-skew-x: 0; --tw-skew-y: 0; --tw-scale-x: 1; --tw-scale-y: 1; --tw-pan-x: ; --tw-pan-y: ; --tw-pinch-zoom: ; --tw-scroll-snap-strictness: proximity; --tw-gradient-from-position: ; --tw-gradient-via-position: ; --tw-gradient-to-position: ; --tw-ordinal: ; --tw-slashed-zero: ; --tw-numeric-figure: ; --tw-numeric-spacing: ; --tw-numeric-fraction: ; --tw-ring-inset: ; --tw-ring-offset-width: 0px; --tw-ring-offset-color: light-dark(#fff, #000000); --tw-ring-color: hsl(var(--accent-secondary-100)/1); --tw-ring-offset-shadow: 0 0 #0000; --tw-ring-shadow: 0 0 #0000; --tw-shadow: 0 0 #0000; --tw-shadow-colored: 0 0 #0000; --tw-blur: ; --tw-brightness: ; --tw-contrast: ; --tw-grayscale: ; --tw-hue-rotate: ; --tw-invert: ; --tw-saturate: ; --tw-sepia: ; --tw-drop-shadow: ; --tw-backdrop-blur: ; --tw-backdrop-brightness: ; --tw-backdrop-contrast: ; --tw-backdrop-grayscale: ; --tw-backdrop-hue-rotate: ; --tw-backdrop-invert: ; --tw-backdrop-opacity: ; --tw-backdrop-saturate: ; --tw-backdrop-sepia: ; --tw-contain-size: ; --tw-contain-layout: ; --tw-contain-paint: ; --tw-contain-style: ; outline-color: hsl(var(--accent-main-100)); scrollbar-color: hsl(var(--border-300)/.8) transparent; letter-spacing: -0.4px; text-align: left;&quot; class=&quot;&quot;&gt;║               HANGMAN                 ║&lt;br&gt;&lt;/span&gt;&lt;span style=&quot;box-sizing: border-box; border-width: 0px; border-style: solid; border-color: hsl(var(--border-100)); border-image: initial; --tw-border-spacing-x: 0; --tw-border-spacing-y: 0; --tw-translate-x: 0; --tw-translate-y: 0; --tw-rotate: 0; --tw-skew-x: 0; --tw-skew-y: 0; --tw-scale-x: 1; --tw-scale-y: 1; --tw-pan-x: ; --tw-pan-y: ; --tw-pinch-zoom: ; --tw-scroll-snap-strictness: proximity; --tw-gradient-from-position: ; --tw-gradient-via-position: ; --tw-gradient-to-position: ; --tw-ordinal: ; --tw-slashed-zero: ; --tw-numeric-figure: ; --tw-numeric-spacing: ; --tw-numeric-fraction: ; --tw-ring-inset: ; --tw-ring-offset-width: 0px; --tw-ring-offset-color: light-dark(#fff, #000000); --tw-ring-color: hsl(var(--accent-secondary-100)/1); --tw-ring-offset-shadow: 0 0 #0000; --tw-ring-shadow: 0 0 #0000; --tw-shadow: 0 0 #0000; --tw-shadow-colored: 0 0 #0000; --tw-blur: ; --tw-brightness: ; --tw-contrast: ; --tw-grayscale: ; --tw-hue-rotate: ; --tw-invert: ; --tw-saturate: ; --tw-sepia: ; --tw-drop-shadow: ; --tw-backdrop-blur: ; --tw-backdrop-brightness: ; --tw-backdrop-contrast: ; --tw-backdrop-grayscale: ; --tw-backdrop-hue-rotate: ; --tw-backdrop-invert: ; --tw-backdrop-opacity: ; --tw-backdrop-saturate: ; --tw-backdrop-sepia: ; --tw-contain-size: ; --tw-contain-layout: ; --tw-contain-paint: ; --tw-contain-style: ; outline-color: hsl(var(--accent-main-100)); scrollbar-color: hsl(var(--border-300)/.8) transparent; letter-spacing: -0.4px; text-align: left;&quot; class=&quot;&quot;&gt;╚═══════════════════════════════════════╝&lt;br&gt;&lt;/span&gt;&lt;span style=&quot;box-sizing: border-box; border-width: 0px; border-style: solid; border-color: hsl(var(--border-100)); border-image: initial; --tw-border-spacing-x: 0; --tw-border-spacing-y: 0; --tw-translate-x: 0; --tw-translate-y: 0; --tw-rotate: 0; --tw-skew-x: 0; --tw-skew-y: 0; --tw-scale-x: 1; --tw-scale-y: 1; --tw-pan-x: ; --tw-pan-y: ; --tw-pinch-zoom: ; --tw-scroll-snap-strictness: proximity; --tw-gradient-from-position: ; --tw-gradient-via-position: ; --tw-gradient-to-position: ; --tw-ordinal: ; --tw-slashed-zero: ; --tw-numeric-figure: ; --tw-numeric-spacing: ; --tw-numeric-fraction: ; --tw-ring-inset: ; --tw-ring-offset-width: 0px; --tw-ring-offset-color: light-dark(#fff, #000000); --tw-ring-color: hsl(var(--accent-secondary-100)/1); --tw-ring-offset-shadow: 0 0 #0000; --tw-ring-shadow: 0 0 #0000; --tw-shadow: 0 0 #0000; --tw-shadow-colored: 0 0 #0000; --tw-blur: ; --tw-brightness: ; --tw-contrast: ; --tw-grayscale: ; --tw-hue-rotate: ; --tw-invert: ; --tw-saturate: ; --tw-sepia: ; --tw-drop-shadow: ; --tw-backdrop-blur: ; --tw-backdrop-brightness: ; --tw-backdrop-contrast: ; --tw-backdrop-grayscale: ; --tw-backdrop-hue-rotate: ; --tw-backdrop-invert: ; --tw-backdrop-opacity: ; --tw-backdrop-saturate: ; --tw-backdrop-sepia: ; --tw-contain-size: ; --tw-contain-layout: ; --tw-contain-paint: ; --tw-contain-style: ; outline-color: hsl(var(--accent-main-100)); scrollbar-color: hsl(var(--border-300)/.8) transparent; letter-spacing: -0.4px; text-align: left;&quot; class=&quot;&quot;&gt;&lt;br&gt;&lt;/span&gt;&lt;span style=&quot;box-sizing: border-box; border-width: 0px; border-style: solid; border-color: hsl(var(--border-100)); border-image: initial; --tw-border-spacing-x: 0; --tw-border-spacing-y: 0; --tw-translate-x: 0; --tw-translate-y: 0; --tw-rotate: 0; --tw-skew-x: 0; --tw-skew-y: 0; --tw-scale-x: 1; --tw-scale-y: 1; --tw-pan-x: ; --tw-pan-y: ; --tw-pinch-zoom: ; --tw-scroll-snap-strictness: proximity; --tw-gradient-from-position: ; --tw-gradient-via-position: ; --tw-gradient-to-position: ; --tw-ordinal: ; --tw-slashed-zero: ; --tw-numeric-figure: ; --tw-numeric-spacing: ; --tw-numeric-fraction: ; --tw-ring-inset: ; --tw-ring-offset-width: 0px; --tw-ring-offset-color: light-dark(#fff, #000000); --tw-ring-color: hsl(var(--accent-secondary-100)/1); --tw-ring-offset-shadow: 0 0 #0000; --tw-ring-shadow: 0 0 #0000; --tw-shadow: 0 0 #0000; --tw-shadow-colored: 0 0 #0000; --tw-blur: ; --tw-brightness: ; --tw-contrast: ; --tw-grayscale: ; --tw-hue-rotate: ; --tw-invert: ; --tw-saturate: ; --tw-sepia: ; --tw-drop-shadow: ; --tw-backdrop-blur: ; --tw-backdrop-brightness: ; --tw-backdrop-contrast: ; --tw-backdrop-grayscale: ; --tw-backdrop-hue-rotate: ; --tw-backdrop-invert: ; --tw-backdrop-opacity: ; --tw-backdrop-saturate: ; --tw-backdrop-sepia: ; --tw-contain-size: ; --tw-contain-layout: ; --tw-contain-paint: ; --tw-contain-style: ; outline-color: hsl(var(--accent-main-100)); scrollbar-color: hsl(var(--border-300)/.8) transparent; letter-spacing: -0.4px; text-align: left;&quot; class=&quot;&quot;&gt;HOW TO PLAY:&lt;br&gt;&lt;/span&gt;&lt;span style=&quot;box-sizing: border-box; border-width: 0px; border-style: solid; border-color: hsl(var(--border-100)); border-image: initial; --tw-border-spacing-x: 0; --tw-border-spacing-y: 0; --tw-translate-x: 0; --tw-translate-y: 0; --tw-rotate: 0; --tw-skew-x: 0; --tw-skew-y: 0; --tw-scale-x: 1; --tw-scale-y: 1; --tw-pan-x: ; --tw-pan-y: ; --tw-pinch-zoom: ; --tw-scroll-snap-strictness: proximity; --tw-gradient-from-position: ; --tw-gradient-via-position: ; --tw-gradient-to-position: ; --tw-ordinal: ; --tw-slashed-zero: ; --tw-numeric-figure: ; --tw-numeric-spacing: ; --tw-numeric-fraction: ; --tw-ring-inset: ; --tw-ring-offset-width: 0px; --tw-ring-offset-color: light-dark(#fff, #000000); --tw-ring-color: hsl(var(--accent-secondary-100)/1); --tw-ring-offset-shadow: 0 0 #0000; --tw-ring-shadow: 0 0 #0000; --tw-shadow: 0 0 #0000; --tw-shadow-colored: 0 0 #0000; --tw-blur: ; --tw-brightness: ; --tw-contrast: ; --tw-grayscale: ; --tw-hue-rotate: ; --tw-invert: ; --tw-saturate: ; --tw-sepia: ; --tw-drop-shadow: ; --tw-backdrop-blur: ; --tw-backdrop-brightness: ; --tw-backdrop-contrast: ; --tw-backdrop-grayscale: ; --tw-backdrop-hue-rotate: ; --tw-backdrop-invert: ; --tw-backdrop-opacity: ; --tw-backdrop-saturate: ; --tw-backdrop-sepia: ; --tw-contain-size: ; --tw-contain-layout: ; --tw-contain-paint: ; --tw-contain-style: ; outline-color: hsl(var(--accent-main-100)); scrollbar-color: hsl(var(--border-300)/.8) transparent; letter-spacing: -0.4px; text-align: left;&quot; class=&quot;&quot;&gt;• Guess letters to reveal the hidden word&lt;br&gt;&lt;/span&gt;&lt;span style=&quot;box-sizing: border-box; border-width: 0px; border-style: solid; border-color: hsl(var(--border-100)); border-image: initial; --tw-border-spacing-x: 0; --tw-border-spacing-y: 0; --tw-translate-x: 0; --tw-translate-y: 0; --tw-rotate: 0; --tw-skew-x: 0; --tw-skew-y: 0; --tw-scale-x: 1; --tw-scale-y: 1; --tw-pan-x: ; --tw-pan-y: ; --tw-pinch-zoom: ; --tw-scroll-snap-strictness: proximity; --tw-gradient-from-position: ; --tw-gradient-via-position: ; --tw-gradient-to-position: ; --tw-ordinal: ; --tw-slashed-zero: ; --tw-numeric-figure: ; --tw-numeric-spacing: ; --tw-numeric-fraction: ; --tw-ring-inset: ; --tw-ring-offset-width: 0px; --tw-ring-offset-color: light-dark(#fff, #000000); --tw-ring-color: hsl(var(--accent-secondary-100)/1); --tw-ring-offset-shadow: 0 0 #0000; --tw-ring-shadow: 0 0 #0000; --tw-shadow: 0 0 #0000; --tw-shadow-colored: 0 0 #0000; --tw-blur: ; --tw-brightness: ; --tw-contrast: ; --tw-grayscale: ; --tw-hue-rotate: ; --tw-invert: ; --tw-saturate: ; --tw-sepia: ; --tw-drop-shadow: ; --tw-backdrop-blur: ; --tw-backdrop-brightness: ; --tw-backdrop-contrast: ; --tw-backdrop-grayscale: ; --tw-backdrop-hue-rotate: ; --tw-backdrop-invert: ; --tw-backdrop-opacity: ; --tw-backdrop-saturate: ; --tw-backdrop-sepia: ; --tw-contain-size: ; --tw-contain-layout: ; --tw-contain-paint: ; --tw-contain-style: ; outline-color: hsl(var(--accent-main-100)); scrollbar-color: hsl(var(--border-300)/.8) transparent; letter-spacing: -0.4px; text-align: left;&quot; class=&quot;&quot;&gt;• You can also guess the entire word at once&lt;br&gt;&lt;/span&gt;&lt;span style=&quot;box-sizing: border-box; border-width: 0px; border-style: solid; border-color: hsl(var(--border-100)); border-image: initial; --tw-border-spacing-x: 0; --tw-border-spacing-y: 0; --tw-translate-x: 0; --tw-translate-y: 0; --tw-rotate: 0; --tw-skew-x: 0; --tw-skew-y: 0; --tw-scale-x: 1; --tw-scale-y: 1; --tw-pan-x: ; --tw-pan-y: ; --tw-pinch-zoom: ; --tw-scroll-snap-strictness: proximity; --tw-gradient-from-position: ; --tw-gradient-via-position: ; --tw-gradient-to-position: ; --tw-ordinal: ; --tw-slashed-zero: ; --tw-numeric-figure: ; --tw-numeric-spacing: ; --tw-numeric-fraction: ; --tw-ring-inset: ; --tw-ring-offset-width: 0px; --tw-ring-offset-color: light-dark(#fff, #000000); --tw-ring-color: hsl(var(--accent-secondary-100)/1); --tw-ring-offset-shadow: 0 0 #0000; --tw-ring-shadow: 0 0 #0000; --tw-shadow: 0 0 #0000; --tw-shadow-colored: 0 0 #0000; --tw-blur: ; --tw-brightness: ; --tw-contrast: ; --tw-grayscale: ; --tw-hue-rotate: ; --tw-invert: ; --tw-saturate: ; --tw-sepia: ; --tw-drop-shadow: ; --tw-backdrop-blur: ; --tw-backdrop-brightness: ; --tw-backdrop-contrast: ; --tw-backdrop-grayscale: ; --tw-backdrop-hue-rotate: ; --tw-backdrop-invert: ; --tw-backdrop-opacity: ; --tw-backdrop-saturate: ; --tw-backdrop-sepia: ; --tw-contain-size: ; --tw-contain-layout: ; --tw-contain-paint: ; --tw-contain-style: ; outline-color: hsl(var(--accent-main-100)); scrollbar-color: hsl(var(--border-300)/.8) transparent; letter-spacing: -0.4px; text-align: left;&quot; class=&quot;&quot;&gt;&lt;br&gt;&lt;/span&gt;&lt;span style=&quot;box-sizing: border-box; border-width: 0px; border-style: solid; border-color: hsl(var(--border-100)); border-image: initial; --tw-border-spacing-x: 0; --tw-border-spacing-y: 0; --tw-translate-x: 0; --tw-translate-y: 0; --tw-rotate: 0; --tw-skew-x: 0; --tw-skew-y: 0; --tw-scale-x: 1; --tw-scale-y: 1; --tw-pan-x: ; --tw-pan-y: ; --tw-pinch-zoom: ; --tw-scroll-snap-strictness: proximity; --tw-gradient-from-position: ; --tw-gradient-via-position: ; --tw-gradient-to-position: ; --tw-ordinal: ; --tw-slashed-zero: ; --tw-numeric-figure: ; --tw-numeric-spacing: ; --tw-numeric-fraction: ; --tw-ring-inset: ; --tw-ring-offset-width: 0px; --tw-ring-offset-color: light-dark(#fff, #000000); --tw-ring-color: hsl(var(--accent-secondary-100)/1); --tw-ring-offset-shadow: 0 0 #0000; --tw-ring-shadow: 0 0 #0000; --tw-shadow: 0 0 #0000; --tw-shadow-colored: 0 0 #0000; --tw-blur: ; --tw-brightness: ; --tw-contrast: ; --tw-grayscale: ; --tw-hue-rotate: ; --tw-invert: ; --tw-saturate: ; --tw-sepia: ; --tw-drop-shadow: ; --tw-backdrop-blur: ; --tw-backdrop-brightness: ; --tw-backdrop-contrast: ; --tw-backdrop-grayscale: ; --tw-backdrop-hue-rotate: ; --tw-backdrop-invert: ; --tw-backdrop-opacity: ; --tw-backdrop-saturate: ; --tw-backdrop-sepia: ; --tw-contain-size: ; --tw-contain-layout: ; --tw-contain-paint: ; --tw-contain-style: ; outline-color: hsl(var(--accent-main-100)); scrollbar-color: hsl(var(--border-300)/.8) transparent; letter-spacing: -0.4px; text-align: left;&quot; class=&quot;&quot;&gt;SCORING SYSTEM:&lt;br&gt;&lt;/span&gt;&lt;span style=&quot;box-sizing: border-box; border-width: 0px; border-style: solid; border-color: hsl(var(--border-100)); border-image: initial; --tw-border-spacing-x: 0; --tw-border-spacing-y: 0; --tw-translate-x: 0; --tw-translate-y: 0; --tw-rotate: 0; --tw-skew-x: 0; --tw-skew-y: 0; --tw-scale-x: 1; --tw-scale-y: 1; --tw-pan-x: ; --tw-pan-y: ; --tw-pinch-zoom: ; --tw-scroll-snap-strictness: proximity; --tw-gradient-from-position: ; --tw-gradient-via-position: ; --tw-gradient-to-position: ; --tw-ordinal: ; --tw-slashed-zero: ; --tw-numeric-figure: ; --tw-numeric-spacing: ; --tw-numeric-fraction: ; --tw-ring-inset: ; --tw-ring-offset-width: 0px; --tw-ring-offset-color: light-dark(#fff, #000000); --tw-ring-color: hsl(var(--accent-secondary-100)/1); --tw-ring-offset-shadow: 0 0 #0000; --tw-ring-shadow: 0 0 #0000; --tw-shadow: 0 0 #0000; --tw-shadow-colored: 0 0 #0000; --tw-blur: ; --tw-brightness: ; --tw-contrast: ; --tw-grayscale: ; --tw-hue-rotate: ; --tw-invert: ; --tw-saturate: ; --tw-sepia: ; --tw-drop-shadow: ; --tw-backdrop-blur: ; --tw-backdrop-brightness: ; --tw-backdrop-contrast: ; --tw-backdrop-grayscale: ; --tw-backdrop-hue-rotate: ; --tw-backdrop-invert: ; --tw-backdrop-opacity: ; --tw-backdrop-saturate: ; --tw-backdrop-sepia: ; --tw-contain-size: ; --tw-contain-layout: ; --tw-contain-paint: ; --tw-contain-style: ; outline-color: hsl(var(--accent-main-100)); scrollbar-color: hsl(var(--border-300)/.8) transparent; letter-spacing: -0.4px; text-align: left;&quot; class=&quot;&quot;&gt;• Correct guess: +10 points&lt;br&gt;&lt;/span&gt;&lt;span style=&quot;box-sizing: border-box; border-width: 0px; border-style: solid; border-color: hsl(var(--border-100)); border-image: initial; --tw-border-spacing-x: 0; --tw-border-spacing-y: 0; --tw-translate-x: 0; --tw-translate-y: 0; --tw-rotate: 0; --tw-skew-x: 0; --tw-skew-y: 0; --tw-scale-x: 1; --tw-scale-y: 1; --tw-pan-x: ; --tw-pan-y: ; --tw-pinch-zoom: ; --tw-scroll-snap-strictness: proximity; --tw-gradient-from-position: ; --tw-gradient-via-position: ; --tw-gradient-to-position: ; --tw-ordinal: ; --tw-slashed-zero: ; --tw-numeric-figure: ; --tw-numeric-spacing: ; --tw-numeric-fraction: ; --tw-ring-inset: ; --tw-ring-offset-width: 0px; --tw-ring-offset-color: light-dark(#fff, #000000); --tw-ring-color: hsl(var(--accent-secondary-100)/1); --tw-ring-offset-shadow: 0 0 #0000; --tw-ring-shadow: 0 0 #0000; --tw-shadow: 0 0 #0000; --tw-shadow-colored: 0 0 #0000; --tw-blur: ; --tw-brightness: ; --tw-contrast: ; --tw-grayscale: ; --tw-hue-rotate: ; --tw-invert: ; --tw-saturate: ; --tw-sepia: ; --tw-drop-shadow: ; --tw-backdrop-blur: ; --tw-backdrop-brightness: ; --tw-backdrop-contrast: ; --tw-backdrop-grayscale: ; --tw-backdrop-hue-rotate: ; --tw-backdrop-invert: ; --tw-backdrop-opacity: ; --tw-backdrop-saturate: ; --tw-backdrop-sepia: ; --tw-contain-size: ; --tw-contain-layout: ; --tw-contain-paint: ; --tw-contain-style: ; outline-color: hsl(var(--accent-main-100)); scrollbar-color: hsl(var(--border-300)/.8) transparent; letter-spacing: -0.4px; text-align: left;&quot; class=&quot;&quot;&gt;• Incorrect guess: -10 points&lt;br&gt;&lt;/span&gt;&lt;span style=&quot;box-sizing: border-box; border-width: 0px; border-style: solid; border-color: hsl(var(--border-100)); border-image: initial; --tw-border-spacing-x: 0; --tw-border-spacing-y: 0; --tw-translate-x: 0; --tw-translate-y: 0; --tw-rotate: 0; --tw-skew-x: 0; --tw-skew-y: 0; --tw-scale-x: 1; --tw-scale-y: 1; --tw-pan-x: ; --tw-pan-y: ; --tw-pinch-zoom: ; --tw-scroll-snap-strictness: proximity; --tw-gradient-from-position: ; --tw-gradient-via-position: ; --tw-gradient-to-position: ; --tw-ordinal: ; --tw-slashed-zero: ; --tw-numeric-figure: ; --tw-numeric-spacing: ; --tw-numeric-fraction: ; --tw-ring-inset: ; --tw-ring-offset-width: 0px; --tw-ring-offset-color: light-dark(#fff, #000000); --tw-ring-color: hsl(var(--accent-secondary-100)/1); --tw-ring-offset-shadow: 0 0 #0000; --tw-ring-shadow: 0 0 #0000; --tw-shadow: 0 0 #0000; --tw-shadow-colored: 0 0 #0000; --tw-blur: ; --tw-brightness: ; --tw-contrast: ; --tw-grayscale: ; --tw-hue-rotate: ; --tw-invert: ; --tw-saturate: ; --tw-sepia: ; --tw-drop-shadow: ; --tw-backdrop-blur: ; --tw-backdrop-brightness: ; --tw-backdrop-contrast: ; --tw-backdrop-grayscale: ; --tw-backdrop-hue-rotate: ; --tw-backdrop-invert: ; --tw-backdrop-opacity: ; --tw-backdrop-saturate: ; --tw-backdrop-sepia: ; --tw-contain-size: ; --tw-contain-layout: ; --tw-contain-paint: ; --tw-contain-style: ; outline-color: hsl(var(--accent-main-100)); scrollbar-color: hsl(var(--border-300)/.8) transparent; letter-spacing: -0.4px; text-align: left;&quot; class=&quot;&quot;&gt;• Repeated letter: -10 points&lt;br&gt;&lt;/span&gt;&lt;span style=&quot;box-sizing: border-box; border-width: 0px; border-style: solid; border-color: hsl(var(--border-100)); border-image: initial; --tw-border-spacing-x: 0; --tw-border-spacing-y: 0; --tw-translate-x: 0; --tw-translate-y: 0; --tw-rotate: 0; --tw-skew-x: 0; --tw-skew-y: 0; --tw-scale-x: 1; --tw-scale-y: 1; --tw-pan-x: ; --tw-pan-y: ; --tw-pinch-zoom: ; --tw-scroll-snap-strictness: proximity; --tw-gradient-from-position: ; --tw-gradient-via-position: ; --tw-gradient-to-position: ; --tw-ordinal: ; --tw-slashed-zero: ; --tw-numeric-figure: ; --tw-numeric-spacing: ; --tw-numeric-fraction: ; --tw-ring-inset: ; --tw-ring-offset-width: 0px; --tw-ring-offset-color: light-dark(#fff, #000000); --tw-ring-color: hsl(var(--accent-secondary-100)/1); --tw-ring-offset-shadow: 0 0 #0000; --tw-ring-shadow: 0 0 #0000; --tw-shadow: 0 0 #0000; --tw-shadow-colored: 0 0 #0000; --tw-blur: ; --tw-brightness: ; --tw-contrast: ; --tw-grayscale: ; --tw-hue-rotate: ; --tw-invert: ; --tw-saturate: ; --tw-sepia: ; --tw-drop-shadow: ; --tw-backdrop-blur: ; --tw-backdrop-brightness: ; --tw-backdrop-contrast: ; --tw-backdrop-grayscale: ; --tw-backdrop-hue-rotate: ; --tw-backdrop-invert: ; --tw-backdrop-opacity: ; --tw-backdrop-saturate: ; --tw-backdrop-sepia: ; --tw-contain-size: ; --tw-contain-layout: ; --tw-contain-paint: ; --tw-contain-style: ; outline-color: hsl(var(--accent-main-100)); scrollbar-color: hsl(var(--border-300)/.8) transparent; letter-spacing: -0.4px; text-align: left;&quot; class=&quot;&quot;&gt;&lt;br&gt;&lt;/span&gt;&lt;span style=&quot;box-sizing: border-box; border-width: 0px; border-style: solid; border-color: hsl(var(--border-100)); border-image: initial; --tw-border-spacing-x: 0; --tw-border-spacing-y: 0; --tw-translate-x: 0; --tw-translate-y: 0; --tw-rotate: 0; --tw-skew-x: 0; --tw-skew-y: 0; --tw-scale-x: 1; --tw-scale-y: 1; --tw-pan-x: ; --tw-pan-y: ; --tw-pinch-zoom: ; --tw-scroll-snap-strictness: proximity; --tw-gradient-from-position: ; --tw-gradient-via-position: ; --tw-gradient-to-position: ; --tw-ordinal: ; --tw-slashed-zero: ; --tw-numeric-figure: ; --tw-numeric-spacing: ; --tw-numeric-fraction: ; --tw-ring-inset: ; --tw-ring-offset-width: 0px; --tw-ring-offset-color: light-dark(#fff, #000000); --tw-ring-color: hsl(var(--accent-secondary-100)/1); --tw-ring-offset-shadow: 0 0 #0000; --tw-ring-shadow: 0 0 #0000; --tw-shadow: 0 0 #0000; --tw-shadow-colored: 0 0 #0000; --tw-blur: ; --tw-brightness: ; --tw-contrast: ; --tw-grayscale: ; --tw-hue-rotate: ; --tw-invert: ; --tw-saturate: ; --tw-sepia: ; --tw-drop-shadow: ; --tw-backdrop-blur: ; --tw-backdrop-brightness: ; --tw-backdrop-contrast: ; --tw-backdrop-grayscale: ; --tw-backdrop-hue-rotate: ; --tw-backdrop-invert: ; --tw-backdrop-opacity: ; --tw-backdrop-saturate: ; --tw-backdrop-sepia: ; --tw-contain-size: ; --tw-contain-layout: ; --tw-contain-paint: ; --tw-contain-style: ; outline-color: hsl(var(--accent-main-100)); scrollbar-color: hsl(var(--border-300)/.8) transparent; letter-spacing: -0.4px; text-align: left;&quot; class=&quot;&quot;&gt;DIFFICULTY LEVELS:&lt;br&gt;&lt;/span&gt;&lt;span style=&quot;box-sizing: border-box; border-width: 0px; border-style: solid; border-color: hsl(var(--border-100)); border-image: initial; --tw-border-spacing-x: 0; --tw-border-spacing-y: 0; --tw-translate-x: 0; --tw-translate-y: 0; --tw-rotate: 0; --tw-skew-x: 0; --tw-skew-y: 0; --tw-scale-x: 1; --tw-scale-y: 1; --tw-pan-x: ; --tw-pan-y: ; --tw-pinch-zoom: ; --tw-scroll-snap-strictness: proximity; --tw-gradient-from-position: ; --tw-gradient-via-position: ; --tw-gradient-to-position: ; --tw-ordinal: ; --tw-slashed-zero: ; --tw-numeric-figure: ; --tw-numeric-spacing: ; --tw-numeric-fraction: ; --tw-ring-inset: ; --tw-ring-offset-width: 0px; --tw-ring-offset-color: light-dark(#fff, #000000); --tw-ring-color: hsl(var(--accent-secondary-100)/1); --tw-ring-offset-shadow: 0 0 #0000; --tw-ring-shadow: 0 0 #0000; --tw-shadow: 0 0 #0000; --tw-shadow-colored: 0 0 #0000; --tw-blur: ; --tw-brightness: ; --tw-contrast: ; --tw-grayscale: ; --tw-hue-rotate: ; --tw-invert: ; --tw-saturate: ; --tw-sepia: ; --tw-drop-shadow: ; --tw-backdrop-blur: ; --tw-backdrop-brightness: ; --tw-backdrop-contrast: ; --tw-backdrop-grayscale: ; --tw-backdrop-hue-rotate: ; --tw-backdrop-invert: ; --tw-backdrop-opacity: ; --tw-backdrop-saturate: ; --tw-backdrop-sepia: ; --tw-contain-size: ; --tw-contain-layout: ; --tw-contain-paint: ; --tw-contain-style: ; outline-color: hsl(var(--accent-main-100)); scrollbar-color: hsl(var(--border-300)/.8) transparent; letter-spacing: -0.4px; text-align: left;&quot; class=&quot;&quot;&gt;• Easy: Shorter words, more starting points&lt;br&gt;&lt;/span&gt;&lt;span style=&quot;box-sizing: border-box; border-width: 0px; border-style: solid; border-color: hsl(var(--border-100)); border-image: initial; --tw-border-spacing-x: 0; --tw-border-spacing-y: 0; --tw-translate-x: 0; --tw-translate-y: 0; --tw-rotate: 0; --tw-skew-x: 0; --tw-skew-y: 0; --tw-scale-x: 1; --tw-scale-y: 1; --tw-pan-x: ; --tw-pan-y: ; --tw-pinch-zoom: ; --tw-scroll-snap-strictness: proximity; --tw-gradient-from-position: ; --tw-gradient-via-position: ; --tw-gradient-to-position: ; --tw-ordinal: ; --tw-slashed-zero: ; --tw-numeric-figure: ; --tw-numeric-spacing: ; --tw-numeric-fraction: ; --tw-ring-inset: ; --tw-ring-offset-width: 0px; --tw-ring-offset-color: light-dark(#fff, #000000); --tw-ring-color: hsl(var(--accent-secondary-100)/1); --tw-ring-offset-shadow: 0 0 #0000; --tw-ring-shadow: 0 0 #0000; --tw-shadow: 0 0 #0000; --tw-shadow-colored: 0 0 #0000; --tw-blur: ; --tw-brightness: ; --tw-contrast: ; --tw-grayscale: ; --tw-hue-rotate: ; --tw-invert: ; --tw-saturate: ; --tw-sepia: ; --tw-drop-shadow: ; --tw-backdrop-blur: ; --tw-backdrop-brightness: ; --tw-backdrop-contrast: ; --tw-backdrop-grayscale: ; --tw-backdrop-hue-rotate: ; --tw-backdrop-invert: ; --tw-backdrop-opacity: ; --tw-backdrop-saturate: ; --tw-backdrop-sepia: ; --tw-contain-size: ; --tw-contain-layout: ; --tw-contain-paint: ; --tw-contain-style: ; outline-color: hsl(var(--accent-main-100)); scrollbar-color: hsl(var(--border-300)/.8) transparent; letter-spacing: -0.4px; text-align: left;&quot; class=&quot;&quot;&gt;• Medium: Average length words, standard points&lt;br&gt;&lt;/span&gt;&lt;span style=&quot;box-sizing: border-box; border-width: 0px; border-style: solid; border-color: hsl(var(--border-100)); border-image: initial; --tw-border-spacing-x: 0; --tw-border-spacing-y: 0; --tw-translate-x: 0; --tw-translate-y: 0; --tw-rotate: 0; --tw-skew-x: 0; --tw-skew-y: 0; --tw-scale-x: 1; --tw-scale-y: 1; --tw-pan-x: ; --tw-pan-y: ; --tw-pinch-zoom: ; --tw-scroll-snap-strictness: proximity; --tw-gradient-from-position: ; --tw-gradient-via-position: ; --tw-gradient-to-position: ; --tw-ordinal: ; --tw-slashed-zero: ; --tw-numeric-figure: ; --tw-numeric-spacing: ; --tw-numeric-fraction: ; --tw-ring-inset: ; --tw-ring-offset-width: 0px; --tw-ring-offset-color: light-dark(#fff, #000000); --tw-ring-color: hsl(var(--accent-secondary-100)/1); --tw-ring-offset-shadow: 0 0 #0000; --tw-ring-shadow: 0 0 #0000; --tw-shadow: 0 0 #0000; --tw-shadow-colored: 0 0 #0000; --tw-blur: ; --tw-brightness: ; --tw-contrast: ; --tw-grayscale: ; --tw-hue-rotate: ; --tw-invert: ; --tw-saturate: ; --tw-sepia: ; --tw-drop-shadow: ; --tw-backdrop-blur: ; --tw-backdrop-brightness: ; --tw-backdrop-contrast: ; --tw-backdrop-grayscale: ; --tw-backdrop-hue-rotate: ; --tw-backdrop-invert: ; --tw-backdrop-opacity: ; --tw-backdrop-saturate: ; --tw-backdrop-sepia: ; --tw-contain-size: ; --tw-contain-layout: ; --tw-contain-paint: ; --tw-contain-style: ; outline-color: hsl(var(--accent-main-100)); scrollbar-color: hsl(var(--border-300)/.8) transparent; letter-spacing: -0.4px; text-align: left;&quot; class=&quot;&quot;&gt;• Hard: Longer words, fewer starting points&lt;br&gt;&lt;/span&gt;&lt;span style=&quot;box-sizing: border-box; border-width: 0px; border-style: solid; border-color: hsl(var(--border-100)); border-image: initial; --tw-border-spacing-x: 0; --tw-border-spacing-y: 0; --tw-translate-x: 0; --tw-translate-y: 0; --tw-rotate: 0; --tw-skew-x: 0; --tw-skew-y: 0; --tw-scale-x: 1; --tw-scale-y: 1; --tw-pan-x: ; --tw-pan-y: ; --tw-pinch-zoom: ; --tw-scroll-snap-strictness: proximity; --tw-gradient-from-position: ; --tw-gradient-via-position: ; --tw-gradient-to-position: ; --tw-ordinal: ; --tw-slashed-zero: ; --tw-numeric-figure: ; --tw-numeric-spacing: ; --tw-numeric-fraction: ; --tw-ring-inset: ; --tw-ring-offset-width: 0px; --tw-ring-offset-color: light-dark(#fff, #000000); --tw-ring-color: hsl(var(--accent-secondary-100)/1); --tw-ring-offset-shadow: 0 0 #0000; --tw-ring-shadow: 0 0 #0000; --tw-shadow: 0 0 #0000; --tw-shadow-colored: 0 0 #0000; --tw-blur: ; --tw-brightness: ; --tw-contrast: ; --tw-grayscale: ; --tw-hue-rotate: ; --tw-invert: ; --tw-saturate: ; --tw-sepia: ; --tw-drop-shadow: ; --tw-backdrop-blur: ; --tw-backdrop-brightness: ; --tw-backdrop-contrast: ; --tw-backdrop-grayscale: ; --tw-backdrop-hue-rotate: ; --tw-backdrop-invert: ; --tw-backdrop-opacity: ; --tw-backdrop-saturate: ; --tw-backdrop-sepia: ; --tw-contain-size: ; --tw-contain-layout: ; --tw-contain-paint: ; --tw-contain-style: ; outline-color: hsl(var(--accent-main-100)); scrollbar-color: hsl(var(--border-300)/.8) transparent; letter-spacing: -0.4px; text-align: left;&quot; class=&quot;&quot;&gt;&lt;br&gt;&lt;/span&gt;&lt;span style=&quot;box-sizing: border-box; border-width: 0px; border-style: solid; border-color: hsl(var(--border-100)); border-image: initial; --tw-border-spacing-x: 0; --tw-border-spacing-y: 0; --tw-translate-x: 0; --tw-translate-y: 0; --tw-rotate: 0; --tw-skew-x: 0; --tw-skew-y: 0; --tw-scale-x: 1; --tw-scale-y: 1; --tw-pan-x: ; --tw-pan-y: ; --tw-pinch-zoom: ; --tw-scroll-snap-strictness: proximity; --tw-gradient-from-position: ; --tw-gradient-via-position: ; --tw-gradient-to-position: ; --tw-ordinal: ; --tw-slashed-zero: ; --tw-numeric-figure: ; --tw-numeric-spacing: ; --tw-numeric-fraction: ; --tw-ring-inset: ; --tw-ring-offset-width: 0px; --tw-ring-offset-color: light-dark(#fff, #000000); --tw-ring-color: hsl(var(--accent-secondary-100)/1); --tw-ring-offset-shadow: 0 0 #0000; --tw-ring-shadow: 0 0 #0000; --tw-shadow: 0 0 #0000; --tw-shadow-colored: 0 0 #0000; --tw-blur: ; --tw-brightness: ; --tw-contrast: ; --tw-grayscale: ; --tw-hue-rotate: ; --tw-invert: ; --tw-saturate: ; --tw-sepia: ; --tw-drop-shadow: ; --tw-backdrop-blur: ; --tw-backdrop-brightness: ; --tw-backdrop-contrast: ; --tw-backdrop-grayscale: ; --tw-backdrop-hue-rotate: ; --tw-backdrop-invert: ; --tw-backdrop-opacity: ; --tw-backdrop-saturate: ; --tw-backdrop-sepia: ; --tw-contain-size: ; --tw-contain-layout: ; --tw-contain-paint: ; --tw-contain-style: ; outline-color: hsl(var(--accent-main-100)); scrollbar-color: hsl(var(--border-300)/.8) transparent; letter-spacing: -0.4px; text-align: left;&quot; class=&quot;&quot;&gt;You win when you reveal the entire word.&lt;br&gt;&lt;/span&gt;&lt;span style=&quot;box-sizing: border-box; border-width: 0px; border-style: solid; border-color: hsl(var(--border-100)); border-image: initial; --tw-border-spacing-x: 0; --tw-border-spacing-y: 0; --tw-translate-x: 0; --tw-translate-y: 0; --tw-rotate: 0; --tw-skew-x: 0; --tw-skew-y: 0; --tw-scale-x: 1; --tw-scale-y: 1; --tw-pan-x: ; --tw-pan-y: ; --tw-pinch-zoom: ; --tw-scroll-snap-strictness: proximity; --tw-gradient-from-position: ; --tw-gradient-via-position: ; --tw-gradient-to-position: ; --tw-ordinal: ; --tw-slashed-zero: ; --tw-numeric-figure: ; --tw-numeric-spacing: ; --tw-numeric-fraction: ; --tw-ring-inset: ; --tw-ring-offset-width: 0px; --tw-ring-offset-color: light-dark(#fff, #000000); --tw-ring-color: hsl(var(--accent-secondary-100)/1); --tw-ring-offset-shadow: 0 0 #0000; --tw-ring-shadow: 0 0 #0000; --tw-shadow: 0 0 #0000; --tw-shadow-colored: 0 0 #0000; --tw-blur: ; --tw-brightness: ; --tw-contrast: ; --tw-grayscale: ; --tw-hue-rotate: ; --tw-invert: ; --tw-saturate: ; --tw-sepia: ; --tw-drop-shadow: ; --tw-backdrop-blur: ; --tw-backdrop-brightness: ; --tw-backdrop-contrast: ; --tw-backdrop-grayscale: ; --tw-backdrop-hue-rotate: ; --tw-backdrop-invert: ; --tw-backdrop-opacity: ; --tw-backdrop-saturate: ; --tw-backdrop-sepia: ; --tw-contain-size: ; --tw-contain-layout: ; --tw-contain-paint: ; --tw-contain-style: ; outline-color: hsl(var(--accent-main-100)); scrollbar-color: hsl(var(--border-300)/.8) transparent; letter-spacing: -0.4px; text-align: left;&quot; class=&quot;&quot;&gt;You lose when you run out of points.&lt;br&gt;&lt;/span&gt;&lt;span style=&quot;box-sizing: border-box; border-width: 0px; border-style: solid; border-color: hsl(var(--border-100)); border-image: initial; --tw-border-spacing-x: 0; --tw-border-spacing-y: 0; --tw-translate-x: 0; --tw-translate-y: 0; --tw-rotate: 0; --tw-skew-x: 0; --tw-skew-y: 0; --tw-scale-x: 1; --tw-scale-y: 1; --tw-pan-x: ; --tw-pan-y: ; --tw-pinch-zoom: ; --tw-scroll-snap-strictness: proximity; --tw-gradient-from-position: ; --tw-gradient-via-position: ; --tw-gradient-to-position: ; --tw-ordinal: ; --tw-slashed-zero: ; --tw-numeric-figure: ; --tw-numeric-spacing: ; --tw-numeric-fraction: ; --tw-ring-inset: ; --tw-ring-offset-width: 0px; --tw-ring-offset-color: light-dark(#fff, #000000); --tw-ring-color: hsl(var(--accent-secondary-100)/1); --tw-ring-offset-shadow: 0 0 #0000; --tw-ring-shadow: 0 0 #0000; --tw-shadow: 0 0 #0000; --tw-shadow-colored: 0 0 #0000; --tw-blur: ; --tw-brightness: ; --tw-contrast: ; --tw-grayscale: ; --tw-hue-rotate: ; --tw-invert: ; --tw-saturate: ; --tw-sepia: ; --tw-drop-shadow: ; --tw-backdrop-blur: ; --tw-backdrop-brightness: ; --tw-backdrop-contrast: ; --tw-backdrop-grayscale: ; --tw-backdrop-hue-rotate: ; --tw-backdrop-invert: ; --tw-backdrop-opacity: ; --tw-backdrop-saturate: ; --tw-backdrop-sepia: ; --tw-contain-size: ; --tw-contain-layout: ; --tw-contain-paint: ; --tw-contain-style: ; outline-color: hsl(var(--accent-main-100)); scrollbar-color: hsl(var(--border-300)/.8) transparent; letter-spacing: -0.4px; text-align: left;&quot; class=&quot;&quot;&gt;&lt;br&gt;&lt;/span&gt;&lt;span style=&quot;box-sizing: border-box; border-width: 0px; border-style: solid; border-color: hsl(var(--border-100)); border-image: initial; --tw-border-spacing-x: 0; --tw-border-spacing-y: 0; --tw-translate-x: 0; --tw-translate-y: 0; --tw-rotate: 0; --tw-skew-x: 0; --tw-skew-y: 0; --tw-scale-x: 1; --tw-scale-y: 1; --tw-pan-x: ; --tw-pan-y: ; --tw-pinch-zoom: ; --tw-scroll-snap-strictness: proximity; --tw-gradient-from-position: ; --tw-gradient-via-position: ; --tw-gradient-to-position: ; --tw-ordinal: ; --tw-slashed-zero: ; --tw-numeric-figure: ; --tw-numeric-spacing: ; --tw-numeric-fraction: ; --tw-ring-inset: ; --tw-ring-offset-width: 0px; --tw-ring-offset-color: light-dark(#fff, #000000); --tw-ring-color: hsl(var(--accent-secondary-100)/1); --tw-ring-offset-shadow: 0 0 #0000; --tw-ring-shadow: 0 0 #0000; --tw-shadow: 0 0 #0000; --tw-shadow-colored: 0 0 #0000; --tw-blur: ; --tw-brightness: ; --tw-contrast: ; --tw-grayscale: ; --tw-hue-rotate: ; --tw-invert: ; --tw-saturate: ; --tw-sepia: ; --tw-drop-shadow: ; --tw-backdrop-blur: ; --tw-backdrop-brightness: ; --tw-backdrop-contrast: ; --tw-backdrop-grayscale: ; --tw-backdrop-hue-rotate: ; --tw-backdrop-invert: ; --tw-backdrop-opacity: ; --tw-backdrop-saturate: ; --tw-backdrop-sepia: ; --tw-contain-size: ; --tw-contain-layout: ; --tw-contain-paint: ; --tw-contain-style: ; outline-color: hsl(var(--accent-main-100)); scrollbar-color: hsl(var(--border-300)/.8) transparent; letter-spacing: -0.4px; text-align: left;&quot; class=&quot;&quot;&gt;Type &#39;start&#39; or &#39;s&#39; to play a new game&lt;br&gt;&lt;/span&gt;&lt;span style=&quot;box-sizing: border-box; border-width: 0px; border-style: solid; border-color: hsl(var(--border-100)); border-image: initial; --tw-border-spacing-x: 0; --tw-border-spacing-y: 0; --tw-translate-x: 0; --tw-translate-y: 0; --tw-rotate: 0; --tw-skew-x: 0; --tw-skew-y: 0; --tw-scale-x: 1; --tw-scale-y: 1; --tw-pan-x: ; --tw-pan-y: ; --tw-pinch-zoom: ; --tw-scroll-snap-strictness: proximity; --tw-gradient-from-position: ; --tw-gradient-via-position: ; --tw-gradient-to-position: ; --tw-ordinal: ; --tw-slashed-zero: ; --tw-numeric-figure: ; --tw-numeric-spacing: ; --tw-numeric-fraction: ; --tw-ring-inset: ; --tw-ring-offset-width: 0px; --tw-ring-offset-color: light-dark(#fff, #000000); --tw-ring-color: hsl(var(--accent-secondary-100)/1); --tw-ring-offset-shadow: 0 0 #0000; --tw-ring-shadow: 0 0 #0000; --tw-shadow: 0 0 #0000; --tw-shadow-colored: 0 0 #0000; --tw-blur: ; --tw-brightness: ; --tw-contrast: ; --tw-grayscale: ; --tw-hue-rotate: ; --tw-invert: ; --tw-saturate: ; --tw-sepia: ; --tw-drop-shadow: ; --tw-backdrop-blur: ; --tw-backdrop-brightness: ; --tw-backdrop-contrast: ; --tw-backdrop-grayscale: ; --tw-backdrop-hue-rotate: ; --tw-backdrop-invert: ; --tw-backdrop-opacity: ; --tw-backdrop-saturate: ; --tw-backdrop-sepia: ; --tw-contain-size: ; --tw-contain-layout: ; --tw-contain-paint: ; --tw-contain-style: ; outline-color: hsl(var(--accent-main-100)); scrollbar-color: hsl(var(--border-300)/.8) transparent; letter-spacing: -0.4px; text-align: left;&quot; class=&quot;&quot;&gt;Type &#39;update&#39; or &#39;u&#39; to add new words to the list&lt;/span&gt;&lt;/font&gt;&lt;/div&gt;&lt;/div&gt;" style="rounded=0;whiteSpace=wrap;html=1;labelBackgroundColor=none;glass=0;shadow=0;" parent="1" vertex="1">
          <mxGeometry x="-1150" y="25" width="311" height="460" as="geometry" />
        </mxCell>
        <mxCell id="UUgWVv2ZVk7OZgaHs7lp-38" style="edgeStyle=orthogonalEdgeStyle;rounded=1;orthogonalLoop=1;jettySize=auto;html=1;entryX=0;entryY=0.5;entryDx=0;entryDy=0;labelBackgroundColor=none;fontColor=default;" parent="1" source="UUgWVv2ZVk7OZgaHs7lp-28" target="UUgWVv2ZVk7OZgaHs7lp-30" edge="1">
          <mxGeometry relative="1" as="geometry" />
        </mxCell>
        <mxCell id="UUgWVv2ZVk7OZgaHs7lp-39" value="u&lt;br&gt;update" style="edgeLabel;html=1;align=center;verticalAlign=middle;resizable=0;points=[];labelBackgroundColor=default;rounded=1;" parent="UUgWVv2ZVk7OZgaHs7lp-38" vertex="1" connectable="0">
          <mxGeometry x="0.3046" y="-4" relative="1" as="geometry">
            <mxPoint x="-4" y="19" as="offset" />
          </mxGeometry>
        </mxCell>
        <mxCell id="34qyB1KcK59s6ThQKmhQ-4" style="edgeStyle=orthogonalEdgeStyle;rounded=1;orthogonalLoop=1;jettySize=auto;html=1;entryX=0.25;entryY=0;entryDx=0;entryDy=0;exitX=0.25;exitY=1;exitDx=0;exitDy=0;labelBackgroundColor=none;fontColor=default;" edge="1" parent="1" source="UUgWVv2ZVk7OZgaHs7lp-28" target="34qyB1KcK59s6ThQKmhQ-3">
          <mxGeometry relative="1" as="geometry" />
        </mxCell>
        <mxCell id="34qyB1KcK59s6ThQKmhQ-5" value="&lt;span style=&quot;&quot;&gt;s&lt;br&gt;&lt;/span&gt;&lt;div&gt;&lt;span style=&quot;&quot;&gt;start&lt;/span&gt;&lt;/div&gt;" style="edgeLabel;html=1;align=center;verticalAlign=middle;resizable=0;points=[];labelBackgroundColor=default;rounded=1;" vertex="1" connectable="0" parent="34qyB1KcK59s6ThQKmhQ-4">
          <mxGeometry x="0.1771" y="-1" relative="1" as="geometry">
            <mxPoint y="18" as="offset" />
          </mxGeometry>
        </mxCell>
        <mxCell id="34qyB1KcK59s6ThQKmhQ-96" style="edgeStyle=orthogonalEdgeStyle;rounded=1;orthogonalLoop=1;jettySize=auto;html=1;exitX=0.75;exitY=0;exitDx=0;exitDy=0;entryX=0;entryY=0.5;entryDx=0;entryDy=0;labelBackgroundColor=none;fontColor=default;" edge="1" parent="1" source="UUgWVv2ZVk7OZgaHs7lp-28" target="34qyB1KcK59s6ThQKmhQ-97">
          <mxGeometry relative="1" as="geometry">
            <mxPoint x="-147" y="24" as="targetPoint" />
            <Array as="points">
              <mxPoint x="-645" y="20" />
              <mxPoint x="-168" y="20" />
              <mxPoint x="-168" y="24" />
            </Array>
          </mxGeometry>
        </mxCell>
        <mxCell id="34qyB1KcK59s6ThQKmhQ-105" value="" style="edgeLabel;html=1;align=center;verticalAlign=middle;resizable=0;points=[];rounded=1;labelBackgroundColor=none;" vertex="1" connectable="0" parent="34qyB1KcK59s6ThQKmhQ-96">
          <mxGeometry x="-0.7889" y="-1" relative="1" as="geometry">
            <mxPoint as="offset" />
          </mxGeometry>
        </mxCell>
        <mxCell id="34qyB1KcK59s6ThQKmhQ-107" value="q&lt;br&gt;&lt;div&gt;quit&lt;/div&gt;" style="edgeLabel;html=1;align=center;verticalAlign=middle;resizable=0;points=[];rounded=1;labelBackgroundColor=default;" vertex="1" connectable="0" parent="34qyB1KcK59s6ThQKmhQ-96">
          <mxGeometry x="-0.7821" y="-2" relative="1" as="geometry">
            <mxPoint as="offset" />
          </mxGeometry>
        </mxCell>
        <mxCell id="34qyB1KcK59s6ThQKmhQ-116" style="edgeStyle=orthogonalEdgeStyle;rounded=1;orthogonalLoop=1;jettySize=auto;html=1;entryX=0.5;entryY=0;entryDx=0;entryDy=0;" edge="1" parent="1" source="UUgWVv2ZVk7OZgaHs7lp-28" target="34qyB1KcK59s6ThQKmhQ-118">
          <mxGeometry relative="1" as="geometry">
            <mxPoint x="257.5714285714289" y="-51" as="targetPoint" />
            <Array as="points">
              <mxPoint x="-703" y="-51" />
              <mxPoint x="274" y="-51" />
            </Array>
          </mxGeometry>
        </mxCell>
        <mxCell id="34qyB1KcK59s6ThQKmhQ-117" value="l&lt;div&gt;load&lt;/div&gt;" style="edgeLabel;html=1;align=center;verticalAlign=middle;resizable=0;points=[];rounded=1;" vertex="1" connectable="0" parent="34qyB1KcK59s6ThQKmhQ-116">
          <mxGeometry x="0.3267" y="6" relative="1" as="geometry">
            <mxPoint x="-628" y="105" as="offset" />
          </mxGeometry>
        </mxCell>
        <mxCell id="UUgWVv2ZVk7OZgaHs7lp-28" value="&lt;div&gt;&lt;font style=&quot;font-size: 14px;&quot; face=&quot;Courier New&quot;&gt;Start a game,&amp;nbsp;&lt;/font&gt;&lt;span style=&quot;font-size: 14px; font-family: &amp;quot;Courier New&amp;quot;; background-color: transparent; color: light-dark(rgb(0, 0, 0), rgb(255, 255, 255));&quot;&gt;update word list, or load a new save file?&amp;nbsp;&lt;/span&gt;&lt;/div&gt;" style="whiteSpace=wrap;html=1;rounded=0;labelBackgroundColor=none;" parent="1" vertex="1">
          <mxGeometry x="-818" y="130" width="230" height="70" as="geometry" />
        </mxCell>
        <mxCell id="UUgWVv2ZVk7OZgaHs7lp-32" style="edgeStyle=orthogonalEdgeStyle;rounded=1;orthogonalLoop=1;jettySize=auto;html=1;entryX=0.5;entryY=0;entryDx=0;entryDy=0;exitX=0.5;exitY=1;exitDx=0;exitDy=0;labelBackgroundColor=none;fontColor=default;" parent="1" source="UUgWVv2ZVk7OZgaHs7lp-30" target="UUgWVv2ZVk7OZgaHs7lp-40" edge="1">
          <mxGeometry relative="1" as="geometry">
            <Array as="points" />
          </mxGeometry>
        </mxCell>
        <mxCell id="UUgWVv2ZVk7OZgaHs7lp-34" value="&lt;div&gt;q&lt;/div&gt;quit" style="edgeLabel;html=1;align=center;verticalAlign=middle;resizable=0;points=[];labelBackgroundColor=default;rounded=1;" parent="UUgWVv2ZVk7OZgaHs7lp-32" vertex="1" connectable="0">
          <mxGeometry x="-0.7888" y="1" relative="1" as="geometry">
            <mxPoint x="-36" y="34" as="offset" />
          </mxGeometry>
        </mxCell>
        <mxCell id="UUgWVv2ZVk7OZgaHs7lp-43" value="" style="edgeStyle=orthogonalEdgeStyle;rounded=1;orthogonalLoop=1;jettySize=auto;html=1;labelBackgroundColor=none;fontColor=default;entryX=0.5;entryY=0;entryDx=0;entryDy=0;" parent="1" source="UUgWVv2ZVk7OZgaHs7lp-30" target="UUgWVv2ZVk7OZgaHs7lp-42" edge="1">
          <mxGeometry relative="1" as="geometry">
            <Array as="points">
              <mxPoint x="-218" y="55" />
            </Array>
          </mxGeometry>
        </mxCell>
        <mxCell id="UUgWVv2ZVk7OZgaHs7lp-44" value="Non Alphabetical&lt;br&gt;input" style="edgeLabel;html=1;align=center;verticalAlign=middle;resizable=0;points=[];labelBackgroundColor=default;rounded=1;" parent="UUgWVv2ZVk7OZgaHs7lp-43" vertex="1" connectable="0">
          <mxGeometry x="-0.1184" y="-4" relative="1" as="geometry">
            <mxPoint x="4" y="41" as="offset" />
          </mxGeometry>
        </mxCell>
        <mxCell id="UUgWVv2ZVk7OZgaHs7lp-46" style="edgeStyle=orthogonalEdgeStyle;rounded=1;orthogonalLoop=1;jettySize=auto;html=1;entryX=1;entryY=0.5;entryDx=0;entryDy=0;labelBackgroundColor=none;fontColor=default;exitX=1;exitY=0.5;exitDx=0;exitDy=0;" parent="1" source="UUgWVv2ZVk7OZgaHs7lp-30" target="UUgWVv2ZVk7OZgaHs7lp-48" edge="1">
          <mxGeometry relative="1" as="geometry">
            <mxPoint x="-138" y="270" as="targetPoint" />
            <mxPoint x="-247.99999999999977" y="80.00000000000011" as="sourcePoint" />
            <Array as="points">
              <mxPoint x="-138" y="55" />
              <mxPoint x="-138" y="285" />
            </Array>
          </mxGeometry>
        </mxCell>
        <mxCell id="UUgWVv2ZVk7OZgaHs7lp-47" value="Word with too high&lt;div&gt;or too low length&lt;/div&gt;" style="edgeLabel;html=1;align=center;verticalAlign=middle;resizable=0;points=[];labelBackgroundColor=default;rounded=1;" parent="UUgWVv2ZVk7OZgaHs7lp-46" vertex="1" connectable="0">
          <mxGeometry x="0.3464" relative="1" as="geometry">
            <mxPoint x="45" y="-194" as="offset" />
          </mxGeometry>
        </mxCell>
        <mxCell id="UUgWVv2ZVk7OZgaHs7lp-52" style="edgeStyle=orthogonalEdgeStyle;rounded=1;orthogonalLoop=1;jettySize=auto;html=1;entryX=0.5;entryY=0;entryDx=0;entryDy=0;labelBackgroundColor=none;fontColor=default;" parent="1" source="UUgWVv2ZVk7OZgaHs7lp-30" target="UUgWVv2ZVk7OZgaHs7lp-51" edge="1">
          <mxGeometry relative="1" as="geometry" />
        </mxCell>
        <mxCell id="UUgWVv2ZVk7OZgaHs7lp-54" value="Duplicate word entered" style="edgeLabel;html=1;align=center;verticalAlign=middle;resizable=0;points=[];labelBackgroundColor=default;rounded=1;" parent="UUgWVv2ZVk7OZgaHs7lp-52" vertex="1" connectable="0">
          <mxGeometry x="0.6525" y="5" relative="1" as="geometry">
            <mxPoint x="-9" y="-32" as="offset" />
          </mxGeometry>
        </mxCell>
        <mxCell id="UUgWVv2ZVk7OZgaHs7lp-56" style="edgeStyle=orthogonalEdgeStyle;rounded=1;orthogonalLoop=1;jettySize=auto;html=1;entryX=1;entryY=0.5;entryDx=0;entryDy=0;labelBackgroundColor=none;fontColor=default;" parent="1" source="UUgWVv2ZVk7OZgaHs7lp-30" target="UUgWVv2ZVk7OZgaHs7lp-58" edge="1">
          <mxGeometry relative="1" as="geometry">
            <mxPoint x="242" y="150" as="targetPoint" />
            <Array as="points">
              <mxPoint x="82" y="55" />
              <mxPoint x="82" y="330" />
            </Array>
          </mxGeometry>
        </mxCell>
        <mxCell id="UUgWVv2ZVk7OZgaHs7lp-57" value="Completely valid&lt;div&gt;word entered&lt;br&gt;(e.g. james)&lt;/div&gt;" style="edgeLabel;html=1;align=center;verticalAlign=middle;resizable=0;points=[];labelBackgroundColor=default;rounded=1;" parent="UUgWVv2ZVk7OZgaHs7lp-56" vertex="1" connectable="0">
          <mxGeometry x="0.7699" relative="1" as="geometry">
            <mxPoint y="-9" as="offset" />
          </mxGeometry>
        </mxCell>
        <mxCell id="UUgWVv2ZVk7OZgaHs7lp-30" value="&lt;div&gt;&lt;font style=&quot;background-color: transparent; color: light-dark(rgb(0, 0, 0), rgb(255, 255, 255)); font-size: 14px;&quot; face=&quot;Courier New&quot;&gt;Add a new word (type QUIT to exit edit mode):&amp;nbsp;&lt;/font&gt;&lt;/div&gt;" style="whiteSpace=wrap;html=1;rounded=1;labelBackgroundColor=none;" parent="1" vertex="1">
          <mxGeometry x="-508" y="30" width="260" height="50" as="geometry" />
        </mxCell>
        <mxCell id="UUgWVv2ZVk7OZgaHs7lp-41" style="edgeStyle=orthogonalEdgeStyle;rounded=1;orthogonalLoop=1;jettySize=auto;html=1;entryX=0.5;entryY=1;entryDx=0;entryDy=0;exitX=0.5;exitY=1;exitDx=0;exitDy=0;labelBackgroundColor=none;fontColor=default;" parent="1" source="UUgWVv2ZVk7OZgaHs7lp-40" target="UUgWVv2ZVk7OZgaHs7lp-28" edge="1">
          <mxGeometry relative="1" as="geometry">
            <Array as="points">
              <mxPoint x="-413" y="220" />
              <mxPoint x="-703" y="220" />
            </Array>
          </mxGeometry>
        </mxCell>
        <mxCell id="UUgWVv2ZVk7OZgaHs7lp-40" value="&lt;font style=&quot;color: light-dark(rgb(0, 0, 0), rgb(255, 255, 255)); font-size: 14px;&quot; face=&quot;Courier New&quot;&gt;Exiting edit list mode&lt;/font&gt;" style="whiteSpace=wrap;html=1;rounded=1;labelBackgroundColor=none;" parent="1" vertex="1">
          <mxGeometry x="-508" y="160" width="190" height="40" as="geometry" />
        </mxCell>
        <mxCell id="UUgWVv2ZVk7OZgaHs7lp-45" style="edgeStyle=orthogonalEdgeStyle;rounded=1;orthogonalLoop=1;jettySize=auto;html=1;entryX=0.5;entryY=1;entryDx=0;entryDy=0;exitX=0.5;exitY=1;exitDx=0;exitDy=0;labelBackgroundColor=none;fontColor=default;" parent="1" source="UUgWVv2ZVk7OZgaHs7lp-42" target="UUgWVv2ZVk7OZgaHs7lp-28" edge="1">
          <mxGeometry relative="1" as="geometry">
            <Array as="points">
              <mxPoint x="-218" y="220" />
              <mxPoint x="-703" y="220" />
            </Array>
          </mxGeometry>
        </mxCell>
        <mxCell id="UUgWVv2ZVk7OZgaHs7lp-42" value="&lt;font style=&quot;font-size: 14px;&quot; face=&quot;Courier New&quot;&gt;Enter Valid Value&lt;/font&gt;" style="whiteSpace=wrap;html=1;rounded=1;labelBackgroundColor=none;" parent="1" vertex="1">
          <mxGeometry x="-278" y="160" width="120" height="40" as="geometry" />
        </mxCell>
        <mxCell id="UUgWVv2ZVk7OZgaHs7lp-49" style="edgeStyle=orthogonalEdgeStyle;rounded=1;orthogonalLoop=1;jettySize=auto;html=1;entryX=0.5;entryY=1;entryDx=0;entryDy=0;exitX=0;exitY=0.5;exitDx=0;exitDy=0;labelBackgroundColor=none;fontColor=default;" parent="1" source="UUgWVv2ZVk7OZgaHs7lp-48" target="UUgWVv2ZVk7OZgaHs7lp-28" edge="1">
          <mxGeometry relative="1" as="geometry">
            <Array as="points">
              <mxPoint x="-703" y="285" />
            </Array>
            <mxPoint x="-703" y="230" as="targetPoint" />
          </mxGeometry>
        </mxCell>
        <mxCell id="UUgWVv2ZVk7OZgaHs7lp-48" value="&lt;font style=&quot;color: light-dark(rgb(0, 0, 0), rgb(255, 255, 255));&quot; face=&quot;Courier New&quot;&gt;Enter a word with the correct length.&lt;/font&gt;" style="whiteSpace=wrap;html=1;rounded=1;labelBackgroundColor=none;" parent="1" vertex="1">
          <mxGeometry x="-508" y="265" width="140" height="40" as="geometry" />
        </mxCell>
        <mxCell id="34qyB1KcK59s6ThQKmhQ-31" style="edgeStyle=orthogonalEdgeStyle;rounded=1;orthogonalLoop=1;jettySize=auto;html=1;entryX=0.5;entryY=1;entryDx=0;entryDy=0;exitX=0;exitY=0.5;exitDx=0;exitDy=0;labelBackgroundColor=none;fontColor=default;" edge="1" parent="1" source="UUgWVv2ZVk7OZgaHs7lp-51" target="UUgWVv2ZVk7OZgaHs7lp-28">
          <mxGeometry relative="1" as="geometry">
            <Array as="points">
              <mxPoint x="-108" y="205" />
              <mxPoint x="-108" y="335" />
              <mxPoint x="-703" y="335" />
            </Array>
          </mxGeometry>
        </mxCell>
        <mxCell id="UUgWVv2ZVk7OZgaHs7lp-51" value="&lt;font style=&quot;color: light-dark(rgb(0, 0, 0), rgb(255, 255, 255)); font-size: 14px;&quot; face=&quot;Courier New&quot;&gt;Word entered already exists&lt;/font&gt;" style="whiteSpace=wrap;html=1;rounded=1;labelBackgroundColor=none;" parent="1" vertex="1">
          <mxGeometry x="-74.5" y="185" width="140" height="40" as="geometry" />
        </mxCell>
        <mxCell id="UUgWVv2ZVk7OZgaHs7lp-59" style="edgeStyle=orthogonalEdgeStyle;rounded=1;orthogonalLoop=1;jettySize=auto;html=1;entryX=0.5;entryY=1;entryDx=0;entryDy=0;exitX=0;exitY=0.5;exitDx=0;exitDy=0;labelBackgroundColor=none;fontColor=default;" parent="1" source="UUgWVv2ZVk7OZgaHs7lp-58" target="UUgWVv2ZVk7OZgaHs7lp-28" edge="1">
          <mxGeometry relative="1" as="geometry">
            <mxPoint x="-703" y="230" as="targetPoint" />
            <Array as="points">
              <mxPoint x="-78" y="335" />
              <mxPoint x="-703" y="335" />
            </Array>
          </mxGeometry>
        </mxCell>
        <mxCell id="UUgWVv2ZVk7OZgaHs7lp-58" value="&lt;font style=&quot;font-size: 13px;&quot; face=&quot;Courier New&quot;&gt;James have been added into the medium difficulty&lt;/font&gt;" style="whiteSpace=wrap;html=1;rounded=1;labelBackgroundColor=none;" parent="1" vertex="1">
          <mxGeometry x="-78" y="305" width="140" height="50" as="geometry" />
        </mxCell>
        <mxCell id="34qyB1KcK59s6ThQKmhQ-7" value="&lt;span style=&quot;background-color: light-dark(#ffffff, var(--ge-dark-color, #121212));&quot;&gt;Any valid input&lt;br&gt;(e,m,h,&lt;br&gt;easy, medium, hard)&lt;/span&gt;" style="edgeStyle=orthogonalEdgeStyle;rounded=1;orthogonalLoop=1;jettySize=auto;html=1;labelBackgroundColor=none;fontColor=default;" edge="1" parent="1" source="34qyB1KcK59s6ThQKmhQ-3" target="34qyB1KcK59s6ThQKmhQ-6">
          <mxGeometry x="-0.0824" relative="1" as="geometry">
            <mxPoint as="offset" />
          </mxGeometry>
        </mxCell>
        <mxCell id="34qyB1KcK59s6ThQKmhQ-9" value="" style="edgeStyle=orthogonalEdgeStyle;rounded=1;orthogonalLoop=1;jettySize=auto;html=1;exitX=0.75;exitY=1;exitDx=0;exitDy=0;entryX=0.75;entryY=0;entryDx=0;entryDy=0;labelBackgroundColor=none;fontColor=default;" edge="1" parent="1" source="34qyB1KcK59s6ThQKmhQ-3" target="34qyB1KcK59s6ThQKmhQ-8">
          <mxGeometry relative="1" as="geometry" />
        </mxCell>
        <mxCell id="34qyB1KcK59s6ThQKmhQ-10" value="Any invalid input" style="edgeLabel;html=1;align=center;verticalAlign=middle;resizable=0;points=[];labelBackgroundColor=default;rounded=1;" vertex="1" connectable="0" parent="34qyB1KcK59s6ThQKmhQ-9">
          <mxGeometry x="-0.175" y="-1" relative="1" as="geometry">
            <mxPoint x="5" y="3" as="offset" />
          </mxGeometry>
        </mxCell>
        <mxCell id="34qyB1KcK59s6ThQKmhQ-111" style="edgeStyle=orthogonalEdgeStyle;rounded=1;orthogonalLoop=1;jettySize=auto;html=1;entryX=0.25;entryY=0;entryDx=0;entryDy=0;exitX=0.25;exitY=1;exitDx=0;exitDy=0;" edge="1" parent="1" source="34qyB1KcK59s6ThQKmhQ-3" target="34qyB1KcK59s6ThQKmhQ-79">
          <mxGeometry relative="1" as="geometry">
            <Array as="points">
              <mxPoint x="-741" y="515" />
              <mxPoint x="-781" y="515" />
              <mxPoint x="-781" y="645" />
              <mxPoint x="-741" y="645" />
            </Array>
          </mxGeometry>
        </mxCell>
        <mxCell id="34qyB1KcK59s6ThQKmhQ-112" value="q&lt;div&gt;quit&lt;/div&gt;" style="edgeLabel;html=1;align=center;verticalAlign=middle;resizable=0;points=[];rounded=1;" vertex="1" connectable="0" parent="34qyB1KcK59s6ThQKmhQ-111">
          <mxGeometry x="0.078" relative="1" as="geometry">
            <mxPoint as="offset" />
          </mxGeometry>
        </mxCell>
        <mxCell id="34qyB1KcK59s6ThQKmhQ-3" value="&lt;font style=&quot;font-size: 14px;&quot; face=&quot;Courier New&quot;&gt;Choose a difficulty:&amp;nbsp;&lt;/font&gt;" style="whiteSpace=wrap;html=1;rounded=1;labelBackgroundColor=none;" vertex="1" parent="1">
          <mxGeometry x="-789" y="435" width="190" height="40" as="geometry" />
        </mxCell>
        <mxCell id="34qyB1KcK59s6ThQKmhQ-13" value="" style="edgeStyle=orthogonalEdgeStyle;rounded=1;orthogonalLoop=1;jettySize=auto;html=1;labelBackgroundColor=none;fontColor=default;" edge="1" parent="1" source="34qyB1KcK59s6ThQKmhQ-6" target="34qyB1KcK59s6ThQKmhQ-12">
          <mxGeometry relative="1" as="geometry" />
        </mxCell>
        <mxCell id="34qyB1KcK59s6ThQKmhQ-6" value="&lt;font style=&quot;font-size: 14px;&quot; face=&quot;Courier New&quot;&gt;&lt;font style=&quot;color: light-dark(rgb(0, 0, 0), rgb(0, 255, 0));&quot;&gt;_ _ _ _ _&lt;br&gt;&lt;/font&gt;&lt;font style=&quot;color: light-dark(rgb(186, 0, 0), rgb(0, 255, 255));&quot;&gt;letters Guessed:&amp;nbsp;&lt;/font&gt;&lt;/font&gt;" style="whiteSpace=wrap;html=1;rounded=1;labelBackgroundColor=none;" vertex="1" parent="1">
          <mxGeometry x="-429" y="435" width="190" height="40" as="geometry" />
        </mxCell>
        <mxCell id="34qyB1KcK59s6ThQKmhQ-110" style="edgeStyle=orthogonalEdgeStyle;rounded=1;orthogonalLoop=1;jettySize=auto;html=1;entryX=0.5;entryY=1;entryDx=0;entryDy=0;exitX=0.25;exitY=0;exitDx=0;exitDy=0;" edge="1" parent="1" source="34qyB1KcK59s6ThQKmhQ-8" target="34qyB1KcK59s6ThQKmhQ-3">
          <mxGeometry relative="1" as="geometry" />
        </mxCell>
        <mxCell id="34qyB1KcK59s6ThQKmhQ-8" value="&lt;font style=&quot;font-size: 14px;&quot; face=&quot;Courier New&quot;&gt;Invalid Difficulty, try again.&lt;/font&gt;" style="whiteSpace=wrap;html=1;rounded=1;labelBackgroundColor=none;" vertex="1" parent="1">
          <mxGeometry x="-759" y="535" width="190" height="40" as="geometry" />
        </mxCell>
        <mxCell id="34qyB1KcK59s6ThQKmhQ-17" value="&lt;span style=&quot;&quot;&gt;Letter that has&amp;nbsp;&lt;/span&gt;&lt;div&gt;&lt;span style=&quot;&quot;&gt;&lt;span style=&quot;color: light-dark(rgb(0, 0, 0), rgb(255, 255, 255));&quot;&gt;already&amp;nbsp;&lt;/span&gt;&lt;/span&gt;&lt;span style=&quot;color: light-dark(rgb(0, 0, 0), rgb(255, 255, 255));&quot;&gt;been used&lt;/span&gt;&lt;/div&gt;" style="edgeStyle=orthogonalEdgeStyle;rounded=1;orthogonalLoop=1;jettySize=auto;html=1;entryX=0.556;entryY=0.049;entryDx=0;entryDy=0;exitX=0.25;exitY=1;exitDx=0;exitDy=0;entryPerimeter=0;labelBackgroundColor=default;fontColor=default;" edge="1" parent="1" source="34qyB1KcK59s6ThQKmhQ-12" target="34qyB1KcK59s6ThQKmhQ-61">
          <mxGeometry x="-0.1713" y="-10" relative="1" as="geometry">
            <mxPoint x="-14" y="575" as="targetPoint" />
            <Array as="points">
              <mxPoint x="-161" y="545" />
              <mxPoint x="-276" y="545" />
            </Array>
            <mxPoint as="offset" />
          </mxGeometry>
        </mxCell>
        <mxCell id="34qyB1KcK59s6ThQKmhQ-18" style="edgeStyle=orthogonalEdgeStyle;rounded=1;orthogonalLoop=1;jettySize=auto;html=1;entryX=0.5;entryY=0;entryDx=0;entryDy=0;exitX=0;exitY=1;exitDx=0;exitDy=0;labelBackgroundColor=none;fontColor=default;" edge="1" parent="1" source="34qyB1KcK59s6ThQKmhQ-12" target="34qyB1KcK59s6ThQKmhQ-19">
          <mxGeometry relative="1" as="geometry">
            <mxPoint x="-159" y="515" as="targetPoint" />
          </mxGeometry>
        </mxCell>
        <mxCell id="34qyB1KcK59s6ThQKmhQ-20" value="Correct Guess" style="edgeLabel;html=1;align=center;verticalAlign=middle;resizable=0;points=[];labelBackgroundColor=default;rounded=1;" vertex="1" connectable="0" parent="34qyB1KcK59s6ThQKmhQ-18">
          <mxGeometry x="0.2468" y="-3" relative="1" as="geometry">
            <mxPoint x="35" y="3" as="offset" />
          </mxGeometry>
        </mxCell>
        <mxCell id="34qyB1KcK59s6ThQKmhQ-108" style="edgeStyle=orthogonalEdgeStyle;rounded=1;orthogonalLoop=1;jettySize=auto;html=1;" edge="1" parent="1" source="34qyB1KcK59s6ThQKmhQ-12" target="34qyB1KcK59s6ThQKmhQ-57">
          <mxGeometry relative="1" as="geometry" />
        </mxCell>
        <mxCell id="34qyB1KcK59s6ThQKmhQ-109" value="Incorrect&lt;div&gt;choice&lt;/div&gt;" style="edgeLabel;html=1;align=center;verticalAlign=middle;resizable=0;points=[];rounded=1;" vertex="1" connectable="0" parent="34qyB1KcK59s6ThQKmhQ-108">
          <mxGeometry x="0.0089" y="1" relative="1" as="geometry">
            <mxPoint as="offset" />
          </mxGeometry>
        </mxCell>
        <mxCell id="34qyB1KcK59s6ThQKmhQ-115" value="quit" style="edgeStyle=orthogonalEdgeStyle;rounded=1;orthogonalLoop=1;jettySize=auto;html=1;" edge="1" parent="1" source="34qyB1KcK59s6ThQKmhQ-12" target="34qyB1KcK59s6ThQKmhQ-114">
          <mxGeometry relative="1" as="geometry" />
        </mxCell>
        <mxCell id="34qyB1KcK59s6ThQKmhQ-12" value="&lt;font face=&quot;Courier New&quot; style=&quot;color: light-dark(rgb(0, 0, 0), rgb(255, 247, 253)); font-size: 14px;&quot;&gt;guess:&amp;nbsp;&lt;/font&gt;" style="whiteSpace=wrap;html=1;rounded=1;labelBackgroundColor=none;" vertex="1" parent="1">
          <mxGeometry x="-209" y="435" width="190" height="40" as="geometry" />
        </mxCell>
        <mxCell id="34qyB1KcK59s6ThQKmhQ-24" value="" style="edgeStyle=orthogonalEdgeStyle;rounded=1;orthogonalLoop=1;jettySize=auto;html=1;labelBackgroundColor=none;fontColor=default;" edge="1" parent="1" source="34qyB1KcK59s6ThQKmhQ-19" target="34qyB1KcK59s6ThQKmhQ-23">
          <mxGeometry relative="1" as="geometry" />
        </mxCell>
        <mxCell id="34qyB1KcK59s6ThQKmhQ-19" value="&lt;font style=&quot;font-size: 14px;&quot; face=&quot;Courier New&quot;&gt;Correct Choice, gain 10 points!&lt;/font&gt;" style="whiteSpace=wrap;html=1;rounded=1;labelBackgroundColor=none;" vertex="1" parent="1">
          <mxGeometry x="-559" y="560" width="170" height="40" as="geometry" />
        </mxCell>
        <mxCell id="34qyB1KcK59s6ThQKmhQ-52" value="Have all letters in target word&lt;br&gt;been guessed?" style="edgeStyle=orthogonalEdgeStyle;rounded=1;orthogonalLoop=1;jettySize=auto;html=1;exitX=0.75;exitY=1;exitDx=0;exitDy=0;labelBackgroundColor=default;fontColor=default;" edge="1" parent="1" source="34qyB1KcK59s6ThQKmhQ-23" target="34qyB1KcK59s6ThQKmhQ-51">
          <mxGeometry relative="1" as="geometry">
            <Array as="points">
              <mxPoint x="-429" y="675" />
            </Array>
          </mxGeometry>
        </mxCell>
        <mxCell id="34qyB1KcK59s6ThQKmhQ-23" value="&lt;font style=&quot;font-size: 14px;&quot; face=&quot;Courier New&quot;&gt;&lt;font style=&quot;color: light-dark(rgb(0, 0, 0), rgb(0, 255, 0));&quot;&gt;j _ _ _ _&lt;br&gt;&lt;/font&gt;&lt;font style=&quot;color: light-dark(rgb(186, 0, 0), rgb(0, 255, 255));&quot;&gt;letters Guessed: j&amp;nbsp;&lt;/font&gt;&lt;/font&gt;" style="whiteSpace=wrap;html=1;rounded=1;labelBackgroundColor=none;" vertex="1" parent="1">
          <mxGeometry x="-569" y="635" width="190" height="40" as="geometry" />
        </mxCell>
        <mxCell id="34qyB1KcK59s6ThQKmhQ-32" value="" style="rounded=1;whiteSpace=wrap;html=1;labelBackgroundColor=none;" vertex="1" parent="1">
          <mxGeometry x="61" y="755" height="10" as="geometry" />
        </mxCell>
        <mxCell id="34qyB1KcK59s6ThQKmhQ-74" style="edgeStyle=orthogonalEdgeStyle;rounded=1;orthogonalLoop=1;jettySize=auto;html=1;entryX=0.25;entryY=0;entryDx=0;entryDy=0;labelBackgroundColor=none;fontColor=default;" edge="1" parent="1" source="34qyB1KcK59s6ThQKmhQ-51" target="34qyB1KcK59s6ThQKmhQ-71">
          <mxGeometry relative="1" as="geometry" />
        </mxCell>
        <mxCell id="34qyB1KcK59s6ThQKmhQ-51" value="&lt;font face=&quot;Courier New&quot; style=&quot;&quot;&gt;&lt;font style=&quot;font-size: 14px; color: light-dark(rgb(255, 247, 253), rgb(0, 255, 0));&quot;&gt;You Won, the word was {James}!&amp;nbsp;&lt;/font&gt;&lt;/font&gt;" style="whiteSpace=wrap;html=1;rounded=1;labelBackgroundColor=none;" vertex="1" parent="1">
          <mxGeometry x="-481.5" y="765" width="190" height="40" as="geometry" />
        </mxCell>
        <mxCell id="34qyB1KcK59s6ThQKmhQ-56" value="" style="edgeStyle=orthogonalEdgeStyle;rounded=1;orthogonalLoop=1;jettySize=auto;html=1;labelBackgroundColor=none;fontColor=default;" edge="1" parent="1" source="34qyB1KcK59s6ThQKmhQ-57" target="34qyB1KcK59s6ThQKmhQ-60">
          <mxGeometry relative="1" as="geometry" />
        </mxCell>
        <mxCell id="34qyB1KcK59s6ThQKmhQ-57" value="&lt;font style=&quot;font-size: 14px;&quot; face=&quot;Courier New&quot;&gt;Wrong choice, loose 10 points&lt;/font&gt;" style="whiteSpace=wrap;html=1;rounded=1;labelBackgroundColor=none;" vertex="1" parent="1">
          <mxGeometry x="-169" y="565" width="190" height="40" as="geometry" />
        </mxCell>
        <mxCell id="34qyB1KcK59s6ThQKmhQ-66" style="edgeStyle=orthogonalEdgeStyle;rounded=1;orthogonalLoop=1;jettySize=auto;html=1;entryX=0.5;entryY=0;entryDx=0;entryDy=0;labelBackgroundColor=none;fontColor=default;" edge="1" parent="1" source="34qyB1KcK59s6ThQKmhQ-60" target="34qyB1KcK59s6ThQKmhQ-65">
          <mxGeometry relative="1" as="geometry" />
        </mxCell>
        <mxCell id="34qyB1KcK59s6ThQKmhQ-67" value="Are the points less than&lt;div&gt;or equal to 0?&lt;/div&gt;" style="edgeLabel;html=1;align=center;verticalAlign=middle;resizable=0;points=[];labelBackgroundColor=default;rounded=1;" vertex="1" connectable="0" parent="34qyB1KcK59s6ThQKmhQ-66">
          <mxGeometry x="-0.1417" y="2" relative="1" as="geometry">
            <mxPoint as="offset" />
          </mxGeometry>
        </mxCell>
        <mxCell id="34qyB1KcK59s6ThQKmhQ-83" style="edgeStyle=orthogonalEdgeStyle;rounded=1;orthogonalLoop=1;jettySize=auto;html=1;entryX=0.75;entryY=0;entryDx=0;entryDy=0;labelBackgroundColor=none;fontColor=default;" edge="1" parent="1" source="34qyB1KcK59s6ThQKmhQ-60" target="34qyB1KcK59s6ThQKmhQ-6">
          <mxGeometry relative="1" as="geometry">
            <Array as="points">
              <mxPoint x="245" y="675" />
              <mxPoint x="245" y="415" />
              <mxPoint x="-286" y="415" />
            </Array>
          </mxGeometry>
        </mxCell>
        <mxCell id="34qyB1KcK59s6ThQKmhQ-84" value="Are the points more&lt;div&gt;than 0&lt;/div&gt;" style="edgeLabel;html=1;align=center;verticalAlign=middle;resizable=0;points=[];labelBackgroundColor=default;rounded=1;" vertex="1" connectable="0" parent="34qyB1KcK59s6ThQKmhQ-83">
          <mxGeometry x="-0.2376" y="1" relative="1" as="geometry">
            <mxPoint as="offset" />
          </mxGeometry>
        </mxCell>
        <mxCell id="34qyB1KcK59s6ThQKmhQ-60" value="&lt;font style=&quot;font-size: 14px;&quot; face=&quot;Courier New&quot;&gt;&lt;font style=&quot;color: light-dark(rgb(0, 0, 0), rgb(0, 255, 0));&quot;&gt;_ _ _ _ _&lt;br&gt;&lt;/font&gt;&lt;font style=&quot;color: light-dark(rgb(186, 0, 0), rgb(0, 255, 255));&quot;&gt;letters Guessed: &lt;/font&gt;&lt;font style=&quot;color: light-dark(rgb(186, 0, 0), rgb(255, 10, 2));&quot;&gt;z&lt;/font&gt;&lt;font style=&quot;color: light-dark(rgb(186, 0, 0), rgb(0, 255, 255));&quot;&gt;&amp;nbsp;&lt;/font&gt;&lt;/font&gt;" style="whiteSpace=wrap;html=1;rounded=1;labelBackgroundColor=none;" vertex="1" parent="1">
          <mxGeometry x="-269" y="655" width="190" height="40" as="geometry" />
        </mxCell>
        <mxCell id="34qyB1KcK59s6ThQKmhQ-63" style="edgeStyle=orthogonalEdgeStyle;rounded=1;orthogonalLoop=1;jettySize=auto;html=1;entryX=0;entryY=0.5;entryDx=0;entryDy=0;exitX=0.25;exitY=1;exitDx=0;exitDy=0;labelBackgroundColor=none;fontColor=default;" edge="1" parent="1" source="34qyB1KcK59s6ThQKmhQ-61" target="34qyB1KcK59s6ThQKmhQ-60">
          <mxGeometry relative="1" as="geometry">
            <Array as="points">
              <mxPoint x="-329" y="615" />
              <mxPoint x="-329" y="675" />
            </Array>
          </mxGeometry>
        </mxCell>
        <mxCell id="34qyB1KcK59s6ThQKmhQ-64" value="Example&lt;br&gt;Output" style="edgeLabel;html=1;align=center;verticalAlign=middle;resizable=0;points=[];labelBackgroundColor=default;rounded=1;" vertex="1" connectable="0" parent="34qyB1KcK59s6ThQKmhQ-63">
          <mxGeometry x="-0.0288" y="-3" relative="1" as="geometry">
            <mxPoint x="15" y="-3" as="offset" />
          </mxGeometry>
        </mxCell>
        <mxCell id="34qyB1KcK59s6ThQKmhQ-61" value="&lt;font face=&quot;Courier New&quot;&gt;Already used letter, loose 10 points&lt;/font&gt;" style="whiteSpace=wrap;html=1;rounded=1;labelBackgroundColor=none;" vertex="1" parent="1">
          <mxGeometry x="-359" y="575" width="150" height="40" as="geometry" />
        </mxCell>
        <mxCell id="34qyB1KcK59s6ThQKmhQ-73" style="edgeStyle=orthogonalEdgeStyle;rounded=1;orthogonalLoop=1;jettySize=auto;html=1;entryX=0.75;entryY=0;entryDx=0;entryDy=0;labelBackgroundColor=none;fontColor=default;" edge="1" parent="1" source="34qyB1KcK59s6ThQKmhQ-65" target="34qyB1KcK59s6ThQKmhQ-71">
          <mxGeometry relative="1" as="geometry">
            <Array as="points">
              <mxPoint x="-144" y="825" />
              <mxPoint x="-246" y="825" />
              <mxPoint x="-246" y="835" />
            </Array>
          </mxGeometry>
        </mxCell>
        <mxCell id="34qyB1KcK59s6ThQKmhQ-65" value="&lt;font face=&quot;Courier New&quot; style=&quot;&quot;&gt;&lt;font style=&quot;font-size: 14px; color: light-dark(rgb(255, 247, 253), rgb(255, 25, 0));&quot;&gt;You Lost, the word was {James}!&lt;/font&gt;&lt;/font&gt;" style="whiteSpace=wrap;html=1;rounded=1;labelBackgroundColor=none;" vertex="1" parent="1">
          <mxGeometry x="-239" y="765" width="190" height="40" as="geometry" />
        </mxCell>
        <mxCell id="34qyB1KcK59s6ThQKmhQ-75" style="edgeStyle=orthogonalEdgeStyle;rounded=1;orthogonalLoop=1;jettySize=auto;html=1;entryX=1;entryY=0.5;entryDx=0;entryDy=0;exitX=0;exitY=0.25;exitDx=0;exitDy=0;labelBackgroundColor=none;fontColor=default;" edge="1" parent="1" source="34qyB1KcK59s6ThQKmhQ-71" target="34qyB1KcK59s6ThQKmhQ-76">
          <mxGeometry relative="1" as="geometry">
            <mxPoint x="-589" y="785" as="targetPoint" />
            <Array as="points">
              <mxPoint x="-389" y="875" />
              <mxPoint x="-651" y="875" />
            </Array>
          </mxGeometry>
        </mxCell>
        <mxCell id="34qyB1KcK59s6ThQKmhQ-80" value="y" style="edgeLabel;html=1;align=center;verticalAlign=middle;resizable=0;points=[];labelBackgroundColor=default;rounded=1;" vertex="1" connectable="0" parent="34qyB1KcK59s6ThQKmhQ-75">
          <mxGeometry x="-0.3082" y="-1" relative="1" as="geometry">
            <mxPoint as="offset" />
          </mxGeometry>
        </mxCell>
        <mxCell id="34qyB1KcK59s6ThQKmhQ-78" style="edgeStyle=orthogonalEdgeStyle;rounded=1;orthogonalLoop=1;jettySize=auto;html=1;entryX=1;entryY=0.75;entryDx=0;entryDy=0;exitX=0;exitY=0.5;exitDx=0;exitDy=0;labelBackgroundColor=none;fontColor=default;" edge="1" parent="1" source="34qyB1KcK59s6ThQKmhQ-71" target="34qyB1KcK59s6ThQKmhQ-79">
          <mxGeometry relative="1" as="geometry">
            <mxPoint x="-569" y="855" as="targetPoint" />
            <Array as="points">
              <mxPoint x="-441" y="875" />
              <mxPoint x="-441" y="835" />
              <mxPoint x="-531" y="835" />
              <mxPoint x="-531" y="733" />
            </Array>
          </mxGeometry>
        </mxCell>
        <mxCell id="34qyB1KcK59s6ThQKmhQ-81" value="n" style="edgeLabel;html=1;align=center;verticalAlign=middle;resizable=0;points=[];labelBackgroundColor=default;rounded=1;" vertex="1" connectable="0" parent="34qyB1KcK59s6ThQKmhQ-78">
          <mxGeometry x="0.319" y="-2" relative="1" as="geometry">
            <mxPoint x="-2" y="1" as="offset" />
          </mxGeometry>
        </mxCell>
        <mxCell id="34qyB1KcK59s6ThQKmhQ-71" value="&lt;font style=&quot;font-size: 14px;&quot; face=&quot;Courier New&quot;&gt;Would you like to play again? (y/n)&lt;/font&gt;" style="whiteSpace=wrap;html=1;rounded=1;labelBackgroundColor=none;" vertex="1" parent="1">
          <mxGeometry x="-389" y="855" width="190" height="40" as="geometry" />
        </mxCell>
        <mxCell id="34qyB1KcK59s6ThQKmhQ-77" style="edgeStyle=orthogonalEdgeStyle;rounded=1;orthogonalLoop=1;jettySize=auto;html=1;entryX=0;entryY=1;entryDx=0;entryDy=0;exitX=0;exitY=0.5;exitDx=0;exitDy=0;labelBackgroundColor=none;fontColor=default;" edge="1" parent="1" source="34qyB1KcK59s6ThQKmhQ-76" target="UUgWVv2ZVk7OZgaHs7lp-28">
          <mxGeometry relative="1" as="geometry">
            <Array as="points">
              <mxPoint x="-818" y="780" />
            </Array>
          </mxGeometry>
        </mxCell>
        <mxCell id="34qyB1KcK59s6ThQKmhQ-76" value="&lt;font style=&quot;font-size: 14px;&quot; face=&quot;Courier New&quot;&gt;Starting a new game!&lt;/font&gt;&lt;div&gt;&lt;font style=&quot;font-size: 14px;&quot; face=&quot;Courier New&quot;&gt;&lt;br&gt;&lt;/font&gt;&lt;/div&gt;&lt;div&gt;&lt;font face=&quot;Courier New&quot;&gt;&lt;br&gt;&lt;/font&gt;&lt;/div&gt;" style="whiteSpace=wrap;html=1;rounded=1;labelBackgroundColor=none;" vertex="1" parent="1">
          <mxGeometry x="-759" y="845" width="190" height="50" as="geometry" />
        </mxCell>
        <mxCell id="34qyB1KcK59s6ThQKmhQ-79" value="&lt;font style=&quot;font-size: 14px;&quot; face=&quot;Courier New&quot;&gt;Thanks For playing!&lt;/font&gt;&lt;div&gt;&lt;font style=&quot;font-size: 14px;&quot; face=&quot;Courier New&quot;&gt;Exiting Program.&lt;/font&gt;&lt;/div&gt;" style="whiteSpace=wrap;html=1;rounded=1;labelBackgroundColor=none;" vertex="1" parent="1">
          <mxGeometry x="-789" y="695" width="190" height="50" as="geometry" />
        </mxCell>
        <mxCell id="34qyB1KcK59s6ThQKmhQ-97" value="&lt;font style=&quot;color: light-dark(rgb(255, 255, 255), rgb(255, 255, 255));&quot; face=&quot;Courier New&quot;&gt;&lt;span style=&quot;font-size: 14px;&quot;&gt;Exiting Program.&amp;nbsp;&lt;/span&gt;&lt;/font&gt;" style="whiteSpace=wrap;html=1;rounded=1;labelBackgroundColor=none;" vertex="1" parent="1">
          <mxGeometry x="-93" y="9" width="177" height="30" as="geometry" />
        </mxCell>
        <mxCell id="34qyB1KcK59s6ThQKmhQ-114" value="&lt;font style=&quot;font-size: 14px;&quot; face=&quot;Courier New&quot;&gt;Thanks For playing!&lt;/font&gt;&lt;div&gt;&lt;font style=&quot;font-size: 14px;&quot; face=&quot;Courier New&quot;&gt;Exiting Program.&lt;/font&gt;&lt;/div&gt;" style="whiteSpace=wrap;html=1;rounded=1;labelBackgroundColor=none;" vertex="1" parent="1">
          <mxGeometry x="51" y="435" width="190" height="50" as="geometry" />
        </mxCell>
        <mxCell id="34qyB1KcK59s6ThQKmhQ-120" value="empty&lt;div&gt;save&lt;/div&gt;&lt;div&gt;file&lt;/div&gt;" style="edgeStyle=orthogonalEdgeStyle;orthogonalLoop=1;jettySize=auto;html=1;exitX=0.5;exitY=1;exitDx=0;exitDy=0;" edge="1" parent="1" source="34qyB1KcK59s6ThQKmhQ-118" target="34qyB1KcK59s6ThQKmhQ-119">
          <mxGeometry relative="1" as="geometry">
            <mxPoint as="offset" />
          </mxGeometry>
        </mxCell>
        <mxCell id="34qyB1KcK59s6ThQKmhQ-128" style="edgeStyle=orthogonalEdgeStyle;rounded=1;orthogonalLoop=1;jettySize=auto;html=1;entryX=0;entryY=0.5;entryDx=0;entryDy=0;" edge="1" parent="1" source="34qyB1KcK59s6ThQKmhQ-118" target="34qyB1KcK59s6ThQKmhQ-122">
          <mxGeometry relative="1" as="geometry">
            <Array as="points">
              <mxPoint x="134" y="24" />
              <mxPoint x="134" y="216" />
            </Array>
          </mxGeometry>
        </mxCell>
        <mxCell id="34qyB1KcK59s6ThQKmhQ-129" value="moved or deleted&lt;div&gt;save file&lt;/div&gt;" style="edgeLabel;html=1;align=center;verticalAlign=middle;resizable=0;points=[];rounded=1;" vertex="1" connectable="0" parent="34qyB1KcK59s6ThQKmhQ-128">
          <mxGeometry x="-0.1525" y="-2" relative="1" as="geometry">
            <mxPoint x="-2" y="-13" as="offset" />
          </mxGeometry>
        </mxCell>
        <mxCell id="34qyB1KcK59s6ThQKmhQ-118" value="&lt;font face=&quot;Courier New&quot;&gt;&lt;span style=&quot;font-size: 14px;&quot;&gt;loading save file ...&lt;/span&gt;&lt;/font&gt;" style="whiteSpace=wrap;html=1;rounded=1;labelBackgroundColor=none;" vertex="1" parent="1">
          <mxGeometry x="164" y="9" width="220" height="30" as="geometry" />
        </mxCell>
        <mxCell id="34qyB1KcK59s6ThQKmhQ-126" style="edgeStyle=orthogonalEdgeStyle;rounded=1;orthogonalLoop=1;jettySize=auto;html=1;entryX=1;entryY=0.5;entryDx=0;entryDy=0;" edge="1" parent="1" source="34qyB1KcK59s6ThQKmhQ-119" target="34qyB1KcK59s6ThQKmhQ-123">
          <mxGeometry relative="1" as="geometry">
            <Array as="points">
              <mxPoint x="421" y="133" />
              <mxPoint x="421" y="309" />
            </Array>
          </mxGeometry>
        </mxCell>
        <mxCell id="34qyB1KcK59s6ThQKmhQ-119" value="&lt;font face=&quot;Courier New&quot;&gt;&lt;span style=&quot;font-size: 14px;&quot;&gt;save file is empty&lt;/span&gt;&lt;/font&gt;" style="whiteSpace=wrap;html=1;rounded=1;labelBackgroundColor=none;" vertex="1" parent="1">
          <mxGeometry x="164.5" y="109" width="220" height="47" as="geometry" />
        </mxCell>
        <mxCell id="34qyB1KcK59s6ThQKmhQ-124" value="" style="edgeStyle=orthogonalEdgeStyle;orthogonalLoop=1;jettySize=auto;html=1;" edge="1" parent="1" source="34qyB1KcK59s6ThQKmhQ-122" target="34qyB1KcK59s6ThQKmhQ-123">
          <mxGeometry relative="1" as="geometry" />
        </mxCell>
        <mxCell id="34qyB1KcK59s6ThQKmhQ-122" value="&lt;font face=&quot;Courier New&quot;&gt;&lt;span style=&quot;font-size: 14px;&quot;&gt;save file can not be found, creating new save file&lt;/span&gt;&lt;/font&gt;" style="whiteSpace=wrap;html=1;rounded=1;labelBackgroundColor=none;" vertex="1" parent="1">
          <mxGeometry x="153" y="192.5" width="243" height="47" as="geometry" />
        </mxCell>
        <mxCell id="34qyB1KcK59s6ThQKmhQ-127" style="edgeStyle=orthogonalEdgeStyle;rounded=1;orthogonalLoop=1;jettySize=auto;html=1;entryX=0.5;entryY=0;entryDx=0;entryDy=0;exitX=0.25;exitY=1;exitDx=0;exitDy=0;" edge="1" parent="1" source="34qyB1KcK59s6ThQKmhQ-123" target="34qyB1KcK59s6ThQKmhQ-3">
          <mxGeometry relative="1" as="geometry">
            <Array as="points">
              <mxPoint x="263" y="333" />
              <mxPoint x="263" y="379" />
              <mxPoint x="-694" y="379" />
            </Array>
          </mxGeometry>
        </mxCell>
        <mxCell id="34qyB1KcK59s6ThQKmhQ-123" value="&lt;font face=&quot;Courier New&quot;&gt;&lt;span style=&quot;font-size: 14px;&quot;&gt;starting new game&lt;/span&gt;&lt;/font&gt;" style="whiteSpace=wrap;html=1;rounded=1;labelBackgroundColor=none;" vertex="1" parent="1">
          <mxGeometry x="153" y="286" width="243" height="47" as="geometry" />
        </mxCell>
        <mxCell id="34qyB1KcK59s6ThQKmhQ-131" style="edgeStyle=orthogonalEdgeStyle;rounded=1;orthogonalLoop=1;jettySize=auto;html=1;entryX=0.5;entryY=0;entryDx=0;entryDy=0;exitX=1;exitY=0.5;exitDx=0;exitDy=0;" edge="1" parent="1" source="34qyB1KcK59s6ThQKmhQ-118" target="34qyB1KcK59s6ThQKmhQ-132">
          <mxGeometry relative="1" as="geometry">
            <mxPoint x="461.42857142857156" y="343.42857142857156" as="targetPoint" />
            <mxPoint x="394" y="9" as="sourcePoint" />
            <Array as="points">
              <mxPoint x="455" y="24" />
            </Array>
          </mxGeometry>
        </mxCell>
        <mxCell id="34qyB1KcK59s6ThQKmhQ-134" value="non-empty,&lt;div&gt;readable&amp;nbsp;&lt;/div&gt;&lt;div&gt;save file&lt;/div&gt;" style="edgeLabel;html=1;align=center;verticalAlign=middle;resizable=0;points=[];rounded=1;" vertex="1" connectable="0" parent="34qyB1KcK59s6ThQKmhQ-131">
          <mxGeometry x="-0.4536" y="5" relative="1" as="geometry">
            <mxPoint as="offset" />
          </mxGeometry>
        </mxCell>
        <mxCell id="34qyB1KcK59s6ThQKmhQ-133" style="edgeStyle=orthogonalEdgeStyle;rounded=1;orthogonalLoop=1;jettySize=auto;html=1;entryX=0.5;entryY=0;entryDx=0;entryDy=0;" edge="1" parent="1" source="34qyB1KcK59s6ThQKmhQ-132" target="34qyB1KcK59s6ThQKmhQ-6">
          <mxGeometry relative="1" as="geometry">
            <Array as="points">
              <mxPoint x="-334" y="393" />
            </Array>
          </mxGeometry>
        </mxCell>
        <mxCell id="34qyB1KcK59s6ThQKmhQ-132" value="&lt;font face=&quot;Courier New&quot;&gt;&lt;span style=&quot;font-size: 14px;&quot;&gt;file found! Starting&lt;br&gt;previous game&lt;/span&gt;&lt;/font&gt;" style="whiteSpace=wrap;html=1;rounded=1;labelBackgroundColor=none;" vertex="1" parent="1">
          <mxGeometry x="345" y="380" width="220" height="41" as="geometry" />
        </mxCell>
      </root>
    </mxGraphModel>
  </diagram>
</mxfile>
